<mxfile host="app.diagrams.net" modified="2022-09-25T11:57:29.049Z" agent="5.0 (Macintosh; Intel Mac OS X 10_15_7) AppleWebKit/537.36 (KHTML, like Gecko) Chrome/105.0.0.0 Safari/537.36" etag="LGt6P7n4TxC5Fvr2X1UO" version="20.3.3" type="github" pages="4">
  <diagram id="uMh2cBTqnDMNJmz3cqUJ" name="Page-1">
    <mxGraphModel dx="5435" dy="2528" grid="1" gridSize="10" guides="1" tooltips="1" connect="1" arrows="1" fold="1" page="1" pageScale="1" pageWidth="827" pageHeight="1169" math="0" shadow="0">
      <root>
        <mxCell id="0" />
        <mxCell id="1" parent="0" />
        <mxCell id="MOReU7AFXgFduFPL6K6e-10" style="edgeStyle=orthogonalEdgeStyle;rounded=0;orthogonalLoop=1;jettySize=auto;html=1;" parent="1" source="MOReU7AFXgFduFPL6K6e-1" target="MOReU7AFXgFduFPL6K6e-9" edge="1">
          <mxGeometry relative="1" as="geometry" />
        </mxCell>
        <mxCell id="MOReU7AFXgFduFPL6K6e-1" value="JpaQueryMethod" style="shape=process;whiteSpace=wrap;html=1;backgroundOutline=1;" parent="1" vertex="1">
          <mxGeometry x="420" y="320" width="120" height="60" as="geometry" />
        </mxCell>
        <mxCell id="MOReU7AFXgFduFPL6K6e-5" style="edgeStyle=orthogonalEdgeStyle;rounded=0;orthogonalLoop=1;jettySize=auto;html=1;exitX=0.5;exitY=0;exitDx=0;exitDy=0;entryX=0.5;entryY=1;entryDx=0;entryDy=0;" parent="1" source="MOReU7AFXgFduFPL6K6e-2" target="MOReU7AFXgFduFPL6K6e-17" edge="1">
          <mxGeometry relative="1" as="geometry">
            <mxPoint x="260" y="280" as="targetPoint" />
          </mxGeometry>
        </mxCell>
        <mxCell id="MOReU7AFXgFduFPL6K6e-7" value="extend" style="edgeLabel;html=1;align=center;verticalAlign=middle;resizable=0;points=[];" parent="MOReU7AFXgFduFPL6K6e-5" vertex="1" connectable="0">
          <mxGeometry x="-0.1667" y="-2" relative="1" as="geometry">
            <mxPoint x="-4" as="offset" />
          </mxGeometry>
        </mxCell>
        <mxCell id="MOReU7AFXgFduFPL6K6e-6" style="edgeStyle=orthogonalEdgeStyle;rounded=0;orthogonalLoop=1;jettySize=auto;html=1;exitX=1;exitY=0.5;exitDx=0;exitDy=0;entryX=0;entryY=0.5;entryDx=0;entryDy=0;dashed=1;" parent="1" source="MOReU7AFXgFduFPL6K6e-2" target="MOReU7AFXgFduFPL6K6e-1" edge="1">
          <mxGeometry relative="1" as="geometry" />
        </mxCell>
        <mxCell id="MOReU7AFXgFduFPL6K6e-8" value="ref" style="edgeLabel;html=1;align=center;verticalAlign=middle;resizable=0;points=[];" parent="MOReU7AFXgFduFPL6K6e-6" vertex="1" connectable="0">
          <mxGeometry x="0.08" y="1" relative="1" as="geometry">
            <mxPoint as="offset" />
          </mxGeometry>
        </mxCell>
        <mxCell id="MOReU7AFXgFduFPL6K6e-39" value="" style="edgeStyle=orthogonalEdgeStyle;rounded=0;orthogonalLoop=1;jettySize=auto;html=1;dashed=1;entryX=0;entryY=0.5;entryDx=0;entryDy=0;exitX=0.75;exitY=1;exitDx=0;exitDy=0;dashPattern=1 1;" parent="1" source="MOReU7AFXgFduFPL6K6e-2" target="MOReU7AFXgFduFPL6K6e-37" edge="1">
          <mxGeometry relative="1" as="geometry">
            <mxPoint x="260" y="460" as="targetPoint" />
          </mxGeometry>
        </mxCell>
        <mxCell id="MOReU7AFXgFduFPL6K6e-40" value="(4) createQuery" style="edgeLabel;html=1;align=center;verticalAlign=middle;resizable=0;points=[];rotation=90;" parent="MOReU7AFXgFduFPL6K6e-39" vertex="1" connectable="0">
          <mxGeometry x="-0.4118" y="2" relative="1" as="geometry">
            <mxPoint x="9" y="17" as="offset" />
          </mxGeometry>
        </mxCell>
        <mxCell id="MOReU7AFXgFduFPL6K6e-42" value="" style="edgeStyle=orthogonalEdgeStyle;rounded=0;orthogonalLoop=1;jettySize=auto;html=1;dashed=1;dashPattern=1 1;" parent="1" source="MOReU7AFXgFduFPL6K6e-2" target="MOReU7AFXgFduFPL6K6e-41" edge="1">
          <mxGeometry relative="1" as="geometry">
            <Array as="points">
              <mxPoint x="260" y="660" />
            </Array>
          </mxGeometry>
        </mxCell>
        <mxCell id="MOReU7AFXgFduFPL6K6e-43" value="(5) bindAndPrepare" style="edgeLabel;html=1;align=center;verticalAlign=middle;resizable=0;points=[];rotation=90;" parent="MOReU7AFXgFduFPL6K6e-42" vertex="1" connectable="0">
          <mxGeometry x="0.3118" relative="1" as="geometry">
            <mxPoint x="10" as="offset" />
          </mxGeometry>
        </mxCell>
        <mxCell id="MOReU7AFXgFduFPL6K6e-122" style="edgeStyle=orthogonalEdgeStyle;rounded=0;orthogonalLoop=1;jettySize=auto;html=1;exitX=0.25;exitY=1;exitDx=0;exitDy=0;" parent="1" source="MOReU7AFXgFduFPL6K6e-2" target="MOReU7AFXgFduFPL6K6e-123" edge="1">
          <mxGeometry relative="1" as="geometry">
            <mxPoint x="100" y="610" as="targetPoint" />
            <Array as="points">
              <mxPoint x="230" y="610" />
            </Array>
          </mxGeometry>
        </mxCell>
        <mxCell id="MOReU7AFXgFduFPL6K6e-159" style="edgeStyle=orthogonalEdgeStyle;rounded=0;orthogonalLoop=1;jettySize=auto;html=1;exitX=1;exitY=0.75;exitDx=0;exitDy=0;entryX=0.5;entryY=1;entryDx=0;entryDy=0;shape=link;" parent="1" source="MOReU7AFXgFduFPL6K6e-2" target="MOReU7AFXgFduFPL6K6e-158" edge="1">
          <mxGeometry relative="1" as="geometry">
            <Array as="points">
              <mxPoint x="400" y="365" />
              <mxPoint x="400" y="510" />
              <mxPoint x="1160" y="510" />
            </Array>
          </mxGeometry>
        </mxCell>
        <mxCell id="MOReU7AFXgFduFPL6K6e-2" value="PartTreeJpaQuery" style="shape=process;whiteSpace=wrap;html=1;backgroundOutline=1;" parent="1" vertex="1">
          <mxGeometry x="200" y="320" width="120" height="60" as="geometry" />
        </mxCell>
        <mxCell id="MOReU7AFXgFduFPL6K6e-3" value="RepositoryQuery" style="shape=process;whiteSpace=wrap;html=1;backgroundOutline=1;" parent="1" vertex="1">
          <mxGeometry x="200" y="90" width="120" height="60" as="geometry" />
        </mxCell>
        <mxCell id="MOReU7AFXgFduFPL6K6e-14" style="edgeStyle=orthogonalEdgeStyle;rounded=0;orthogonalLoop=1;jettySize=auto;html=1;exitX=1;exitY=0.5;exitDx=0;exitDy=0;entryX=0;entryY=0.5;entryDx=0;entryDy=0;dashed=1;" parent="1" source="MOReU7AFXgFduFPL6K6e-9" target="MOReU7AFXgFduFPL6K6e-12" edge="1">
          <mxGeometry relative="1" as="geometry" />
        </mxCell>
        <mxCell id="MOReU7AFXgFduFPL6K6e-15" style="edgeStyle=orthogonalEdgeStyle;rounded=0;orthogonalLoop=1;jettySize=auto;html=1;exitX=1;exitY=0.5;exitDx=0;exitDy=0;entryX=0;entryY=0.5;entryDx=0;entryDy=0;dashed=1;" parent="1" source="MOReU7AFXgFduFPL6K6e-9" target="MOReU7AFXgFduFPL6K6e-11" edge="1">
          <mxGeometry relative="1" as="geometry" />
        </mxCell>
        <mxCell id="MOReU7AFXgFduFPL6K6e-16" style="edgeStyle=orthogonalEdgeStyle;rounded=0;orthogonalLoop=1;jettySize=auto;html=1;entryX=0;entryY=0.5;entryDx=0;entryDy=0;dashed=1;" parent="1" source="MOReU7AFXgFduFPL6K6e-9" target="MOReU7AFXgFduFPL6K6e-13" edge="1">
          <mxGeometry relative="1" as="geometry" />
        </mxCell>
        <mxCell id="MOReU7AFXgFduFPL6K6e-9" value="QueryMethod" style="shape=process;whiteSpace=wrap;html=1;backgroundOutline=1;" parent="1" vertex="1">
          <mxGeometry x="420" y="201" width="120" height="60" as="geometry" />
        </mxCell>
        <mxCell id="MOReU7AFXgFduFPL6K6e-11" value="Method" style="shape=process;whiteSpace=wrap;html=1;backgroundOutline=1;" parent="1" vertex="1">
          <mxGeometry x="610" y="100" width="120" height="60" as="geometry" />
        </mxCell>
        <mxCell id="MOReU7AFXgFduFPL6K6e-12" value="RepositoryMetadata" style="shape=process;whiteSpace=wrap;html=1;backgroundOutline=1;" parent="1" vertex="1">
          <mxGeometry x="610" y="201" width="120" height="60" as="geometry" />
        </mxCell>
        <mxCell id="MOReU7AFXgFduFPL6K6e-13" value="ProjectionFactory" style="shape=process;whiteSpace=wrap;html=1;backgroundOutline=1;" parent="1" vertex="1">
          <mxGeometry x="610" y="300" width="120" height="60" as="geometry" />
        </mxCell>
        <mxCell id="MOReU7AFXgFduFPL6K6e-18" style="edgeStyle=orthogonalEdgeStyle;rounded=0;orthogonalLoop=1;jettySize=auto;html=1;exitX=0.5;exitY=0;exitDx=0;exitDy=0;entryX=0.5;entryY=1;entryDx=0;entryDy=0;" parent="1" source="MOReU7AFXgFduFPL6K6e-17" target="MOReU7AFXgFduFPL6K6e-3" edge="1">
          <mxGeometry relative="1" as="geometry" />
        </mxCell>
        <mxCell id="MOReU7AFXgFduFPL6K6e-20" style="edgeStyle=orthogonalEdgeStyle;rounded=0;orthogonalLoop=1;jettySize=auto;html=1;exitX=0;exitY=0.5;exitDx=0;exitDy=0;entryX=1;entryY=0.5;entryDx=0;entryDy=0;dashed=1;" parent="1" source="MOReU7AFXgFduFPL6K6e-17" target="MOReU7AFXgFduFPL6K6e-19" edge="1">
          <mxGeometry relative="1" as="geometry" />
        </mxCell>
        <mxCell id="MOReU7AFXgFduFPL6K6e-21" value="(1) execute" style="edgeLabel;html=1;align=center;verticalAlign=middle;resizable=0;points=[];" parent="MOReU7AFXgFduFPL6K6e-20" vertex="1" connectable="0">
          <mxGeometry x="-0.0857" relative="1" as="geometry">
            <mxPoint as="offset" />
          </mxGeometry>
        </mxCell>
        <mxCell id="MOReU7AFXgFduFPL6K6e-25" style="edgeStyle=orthogonalEdgeStyle;rounded=0;orthogonalLoop=1;jettySize=auto;html=1;exitX=0;exitY=0.75;exitDx=0;exitDy=0;dashed=1;dashPattern=1 1;entryX=0;entryY=0.5;entryDx=0;entryDy=0;" parent="1" source="MOReU7AFXgFduFPL6K6e-17" target="MOReU7AFXgFduFPL6K6e-2" edge="1">
          <mxGeometry relative="1" as="geometry">
            <mxPoint x="240" y="310" as="targetPoint" />
          </mxGeometry>
        </mxCell>
        <mxCell id="MOReU7AFXgFduFPL6K6e-26" value="(3) doCreateQuery" style="edgeLabel;html=1;align=center;verticalAlign=middle;resizable=0;points=[];" parent="MOReU7AFXgFduFPL6K6e-25" vertex="1" connectable="0">
          <mxGeometry x="-0.0667" y="1" relative="1" as="geometry">
            <mxPoint as="offset" />
          </mxGeometry>
        </mxCell>
        <mxCell id="MOReU7AFXgFduFPL6K6e-27" style="edgeStyle=orthogonalEdgeStyle;rounded=0;orthogonalLoop=1;jettySize=auto;html=1;exitX=1;exitY=0.5;exitDx=0;exitDy=0;entryX=0;entryY=0.25;entryDx=0;entryDy=0;dashed=1;" parent="1" source="MOReU7AFXgFduFPL6K6e-17" target="MOReU7AFXgFduFPL6K6e-1" edge="1">
          <mxGeometry relative="1" as="geometry" />
        </mxCell>
        <mxCell id="MOReU7AFXgFduFPL6K6e-17" value="AbstractJpaQuery" style="shape=process;whiteSpace=wrap;html=1;backgroundOutline=1;" parent="1" vertex="1">
          <mxGeometry x="200" y="210" width="120" height="60" as="geometry" />
        </mxCell>
        <mxCell id="MOReU7AFXgFduFPL6K6e-22" style="edgeStyle=orthogonalEdgeStyle;rounded=0;orthogonalLoop=1;jettySize=auto;html=1;exitX=1;exitY=0.25;exitDx=0;exitDy=0;entryX=0;entryY=0.25;entryDx=0;entryDy=0;dashed=1;" parent="1" source="MOReU7AFXgFduFPL6K6e-19" target="MOReU7AFXgFduFPL6K6e-17" edge="1">
          <mxGeometry relative="1" as="geometry" />
        </mxCell>
        <mxCell id="MOReU7AFXgFduFPL6K6e-23" value="(2) createQuery" style="edgeLabel;html=1;align=center;verticalAlign=middle;resizable=0;points=[];" parent="MOReU7AFXgFduFPL6K6e-22" vertex="1" connectable="0">
          <mxGeometry x="0.0941" y="3" relative="1" as="geometry">
            <mxPoint as="offset" />
          </mxGeometry>
        </mxCell>
        <mxCell id="MOReU7AFXgFduFPL6K6e-35" style="edgeStyle=orthogonalEdgeStyle;rounded=0;orthogonalLoop=1;jettySize=auto;html=1;exitX=0.75;exitY=0;exitDx=0;exitDy=0;entryX=0;entryY=0.75;entryDx=0;entryDy=0;dashed=1;" parent="1" source="MOReU7AFXgFduFPL6K6e-19" target="MOReU7AFXgFduFPL6K6e-34" edge="1">
          <mxGeometry relative="1" as="geometry">
            <Array as="points">
              <mxPoint x="-65" y="69" />
            </Array>
          </mxGeometry>
        </mxCell>
        <mxCell id="MOReU7AFXgFduFPL6K6e-94" value="(6) getXXX()" style="edgeStyle=orthogonalEdgeStyle;rounded=0;orthogonalLoop=1;jettySize=auto;html=1;exitX=0.5;exitY=0;exitDx=0;exitDy=0;dashed=1;entryX=0.75;entryY=1;entryDx=0;entryDy=0;" parent="1" source="MOReU7AFXgFduFPL6K6e-19" target="MOReU7AFXgFduFPL6K6e-95" edge="1">
          <mxGeometry relative="1" as="geometry">
            <mxPoint x="-220" y="130" as="targetPoint" />
          </mxGeometry>
        </mxCell>
        <mxCell id="MOReU7AFXgFduFPL6K6e-19" value="JpaQueryExecution" style="shape=process;whiteSpace=wrap;html=1;backgroundOutline=1;" parent="1" vertex="1">
          <mxGeometry x="-155" y="214" width="120" height="60" as="geometry" />
        </mxCell>
        <mxCell id="MOReU7AFXgFduFPL6K6e-29" style="edgeStyle=orthogonalEdgeStyle;rounded=0;orthogonalLoop=1;jettySize=auto;html=1;exitX=0.5;exitY=0;exitDx=0;exitDy=0;entryX=0.5;entryY=1;entryDx=0;entryDy=0;" parent="1" source="MOReU7AFXgFduFPL6K6e-28" target="MOReU7AFXgFduFPL6K6e-19" edge="1">
          <mxGeometry relative="1" as="geometry" />
        </mxCell>
        <mxCell id="MOReU7AFXgFduFPL6K6e-28" value="CollectionQueryExectuion" style="shape=process;whiteSpace=wrap;html=1;backgroundOutline=1;" parent="1" vertex="1">
          <mxGeometry x="-155" y="421" width="120" height="60" as="geometry" />
        </mxCell>
        <mxCell id="MOReU7AFXgFduFPL6K6e-31" style="edgeStyle=orthogonalEdgeStyle;rounded=0;orthogonalLoop=1;jettySize=auto;html=1;entryX=0.5;entryY=1;entryDx=0;entryDy=0;exitX=0.5;exitY=0;exitDx=0;exitDy=0;" parent="1" source="MOReU7AFXgFduFPL6K6e-30" target="MOReU7AFXgFduFPL6K6e-19" edge="1">
          <mxGeometry relative="1" as="geometry" />
        </mxCell>
        <mxCell id="MOReU7AFXgFduFPL6K6e-30" value="PagedQueryExectuion" style="shape=process;whiteSpace=wrap;html=1;backgroundOutline=1;" parent="1" vertex="1">
          <mxGeometry x="-300" y="421" width="120" height="60" as="geometry" />
        </mxCell>
        <mxCell id="MOReU7AFXgFduFPL6K6e-33" style="edgeStyle=orthogonalEdgeStyle;rounded=0;orthogonalLoop=1;jettySize=auto;html=1;exitX=0.5;exitY=0;exitDx=0;exitDy=0;entryX=0.5;entryY=1;entryDx=0;entryDy=0;" parent="1" source="MOReU7AFXgFduFPL6K6e-32" target="MOReU7AFXgFduFPL6K6e-19" edge="1">
          <mxGeometry relative="1" as="geometry">
            <mxPoint x="-30" y="270" as="targetPoint" />
          </mxGeometry>
        </mxCell>
        <mxCell id="MOReU7AFXgFduFPL6K6e-32" value="SingleEntityExecution" style="shape=process;whiteSpace=wrap;html=1;backgroundOutline=1;direction=east;" parent="1" vertex="1">
          <mxGeometry x="-5" y="421" width="120" height="60" as="geometry" />
        </mxCell>
        <mxCell id="MOReU7AFXgFduFPL6K6e-34" value="Query" style="shape=process;whiteSpace=wrap;html=1;backgroundOutline=1;" parent="1" vertex="1">
          <mxGeometry x="10" y="24" width="120" height="60" as="geometry" />
        </mxCell>
        <mxCell id="MOReU7AFXgFduFPL6K6e-99" style="edgeStyle=orthogonalEdgeStyle;rounded=0;orthogonalLoop=1;jettySize=auto;html=1;exitX=0.25;exitY=0;exitDx=0;exitDy=0;entryX=1.008;entryY=0.883;entryDx=0;entryDy=0;entryPerimeter=0;dashed=1;dashPattern=1 1;" parent="1" source="MOReU7AFXgFduFPL6K6e-37" target="MOReU7AFXgFduFPL6K6e-2" edge="1">
          <mxGeometry relative="1" as="geometry" />
        </mxCell>
        <mxCell id="MOReU7AFXgFduFPL6K6e-100" value="(4-5) return query" style="edgeLabel;html=1;align=center;verticalAlign=middle;resizable=0;points=[];rotation=90;" parent="MOReU7AFXgFduFPL6K6e-99" vertex="1" connectable="0">
          <mxGeometry x="-0.2767" y="-3" relative="1" as="geometry">
            <mxPoint as="offset" />
          </mxGeometry>
        </mxCell>
        <mxCell id="MOReU7AFXgFduFPL6K6e-37" value="EntityManager&lt;br&gt;(javax)" style="shape=process;whiteSpace=wrap;html=1;backgroundOutline=1;" parent="1" vertex="1">
          <mxGeometry x="320" y="532" width="120" height="60" as="geometry" />
        </mxCell>
        <mxCell id="MOReU7AFXgFduFPL6K6e-41" value="ParameterBinder" style="shape=process;whiteSpace=wrap;html=1;backgroundOutline=1;" parent="1" vertex="1">
          <mxGeometry x="320" y="630" width="120" height="60" as="geometry" />
        </mxCell>
        <mxCell id="MOReU7AFXgFduFPL6K6e-46" style="edgeStyle=orthogonalEdgeStyle;rounded=0;orthogonalLoop=1;jettySize=auto;html=1;entryX=1;entryY=0.5;entryDx=0;entryDy=0;" parent="1" source="MOReU7AFXgFduFPL6K6e-44" target="MOReU7AFXgFduFPL6K6e-37" edge="1">
          <mxGeometry relative="1" as="geometry" />
        </mxCell>
        <mxCell id="MOReU7AFXgFduFPL6K6e-64" value="" style="edgeStyle=orthogonalEdgeStyle;rounded=0;orthogonalLoop=1;jettySize=auto;html=1;" parent="1" source="MOReU7AFXgFduFPL6K6e-44" target="MOReU7AFXgFduFPL6K6e-63" edge="1">
          <mxGeometry relative="1" as="geometry" />
        </mxCell>
        <mxCell id="MOReU7AFXgFduFPL6K6e-44" value="Session&lt;br&gt;(hibernate)" style="shape=process;whiteSpace=wrap;html=1;backgroundOutline=1;" parent="1" vertex="1">
          <mxGeometry x="520" y="532" width="120" height="60" as="geometry" />
        </mxCell>
        <mxCell id="MOReU7AFXgFduFPL6K6e-50" value="" style="edgeStyle=orthogonalEdgeStyle;rounded=0;orthogonalLoop=1;jettySize=auto;html=1;" parent="1" source="MOReU7AFXgFduFPL6K6e-47" target="MOReU7AFXgFduFPL6K6e-49" edge="1">
          <mxGeometry relative="1" as="geometry" />
        </mxCell>
        <mxCell id="2TI_Rl4MxW1gEGPfBDP3-23" style="edgeStyle=orthogonalEdgeStyle;rounded=0;orthogonalLoop=1;jettySize=auto;html=1;entryX=0.5;entryY=1;entryDx=0;entryDy=0;" parent="1" source="MOReU7AFXgFduFPL6K6e-47" target="2TI_Rl4MxW1gEGPfBDP3-22" edge="1">
          <mxGeometry relative="1" as="geometry" />
        </mxCell>
        <mxCell id="2TI_Rl4MxW1gEGPfBDP3-31" value="" style="edgeStyle=orthogonalEdgeStyle;rounded=0;orthogonalLoop=1;jettySize=auto;html=1;dashed=1;entryX=1;entryY=0.5;entryDx=0;entryDy=0;" parent="1" source="MOReU7AFXgFduFPL6K6e-47" target="2TI_Rl4MxW1gEGPfBDP3-32" edge="1">
          <mxGeometry relative="1" as="geometry">
            <mxPoint x="-10" y="970" as="targetPoint" />
          </mxGeometry>
        </mxCell>
        <mxCell id="2TI_Rl4MxW1gEGPfBDP3-37" value="(6-5) performList()" style="edgeLabel;html=1;align=center;verticalAlign=middle;resizable=0;points=[];" parent="2TI_Rl4MxW1gEGPfBDP3-31" vertex="1" connectable="0">
          <mxGeometry x="0.0111" relative="1" as="geometry">
            <mxPoint as="offset" />
          </mxGeometry>
        </mxCell>
        <mxCell id="2TI_Rl4MxW1gEGPfBDP3-34" style="edgeStyle=orthogonalEdgeStyle;rounded=0;orthogonalLoop=1;jettySize=auto;html=1;exitX=0;exitY=0.25;exitDx=0;exitDy=0;entryX=1;entryY=0.5;entryDx=0;entryDy=0;dashed=1;" parent="1" source="MOReU7AFXgFduFPL6K6e-47" target="2TI_Rl4MxW1gEGPfBDP3-33" edge="1">
          <mxGeometry relative="1" as="geometry" />
        </mxCell>
        <mxCell id="2TI_Rl4MxW1gEGPfBDP3-35" value="(6-4) getQueryPlan()" style="edgeLabel;html=1;align=center;verticalAlign=middle;resizable=0;points=[];" parent="2TI_Rl4MxW1gEGPfBDP3-34" vertex="1" connectable="0">
          <mxGeometry x="-0.0337" y="1" relative="1" as="geometry">
            <mxPoint as="offset" />
          </mxGeometry>
        </mxCell>
        <mxCell id="MOReU7AFXgFduFPL6K6e-47" value="SessionImpl" style="shape=process;whiteSpace=wrap;html=1;backgroundOutline=1;" parent="1" vertex="1">
          <mxGeometry x="70" y="860" width="290" height="220" as="geometry" />
        </mxCell>
        <mxCell id="MOReU7AFXgFduFPL6K6e-55" value="" style="edgeStyle=orthogonalEdgeStyle;rounded=0;orthogonalLoop=1;jettySize=auto;html=1;" parent="1" source="MOReU7AFXgFduFPL6K6e-49" target="MOReU7AFXgFduFPL6K6e-54" edge="1">
          <mxGeometry relative="1" as="geometry" />
        </mxCell>
        <mxCell id="MOReU7AFXgFduFPL6K6e-57" value="" style="edgeStyle=orthogonalEdgeStyle;rounded=0;orthogonalLoop=1;jettySize=auto;html=1;" parent="1" edge="1">
          <mxGeometry relative="1" as="geometry">
            <mxPoint x="620" y="811" as="sourcePoint" />
            <mxPoint x="700" y="771" as="targetPoint" />
            <Array as="points">
              <mxPoint x="620" y="800" />
              <mxPoint x="700" y="800" />
            </Array>
          </mxGeometry>
        </mxCell>
        <mxCell id="MOReU7AFXgFduFPL6K6e-69" style="edgeStyle=orthogonalEdgeStyle;rounded=0;orthogonalLoop=1;jettySize=auto;html=1;exitX=1;exitY=0.5;exitDx=0;exitDy=0;entryX=0.5;entryY=1;entryDx=0;entryDy=0;" parent="1" source="MOReU7AFXgFduFPL6K6e-49" target="MOReU7AFXgFduFPL6K6e-68" edge="1">
          <mxGeometry relative="1" as="geometry" />
        </mxCell>
        <mxCell id="MOReU7AFXgFduFPL6K6e-49" value="AbstractSessionImpl" style="shape=process;whiteSpace=wrap;html=1;backgroundOutline=1;" parent="1" vertex="1">
          <mxGeometry x="521" y="810" width="120" height="60" as="geometry" />
        </mxCell>
        <mxCell id="MOReU7AFXgFduFPL6K6e-61" style="edgeStyle=orthogonalEdgeStyle;rounded=0;orthogonalLoop=1;jettySize=auto;html=1;entryX=0.5;entryY=1;entryDx=0;entryDy=0;" parent="1" source="MOReU7AFXgFduFPL6K6e-54" target="MOReU7AFXgFduFPL6K6e-44" edge="1">
          <mxGeometry relative="1" as="geometry" />
        </mxCell>
        <mxCell id="MOReU7AFXgFduFPL6K6e-54" value="SessionImplementor" style="shape=process;whiteSpace=wrap;html=1;backgroundOutline=1;" parent="1" vertex="1">
          <mxGeometry x="520" y="640" width="120" height="60" as="geometry" />
        </mxCell>
        <mxCell id="MOReU7AFXgFduFPL6K6e-60" style="edgeStyle=orthogonalEdgeStyle;rounded=0;orthogonalLoop=1;jettySize=auto;html=1;exitX=0.5;exitY=0;exitDx=0;exitDy=0;entryX=1;entryY=0.5;entryDx=0;entryDy=0;" parent="1" source="MOReU7AFXgFduFPL6K6e-56" target="MOReU7AFXgFduFPL6K6e-54" edge="1">
          <mxGeometry relative="1" as="geometry" />
        </mxCell>
        <mxCell id="MOReU7AFXgFduFPL6K6e-56" value="EventSource" style="shape=process;whiteSpace=wrap;html=1;backgroundOutline=1;" parent="1" vertex="1">
          <mxGeometry x="640" y="710" width="120" height="60" as="geometry" />
        </mxCell>
        <mxCell id="MOReU7AFXgFduFPL6K6e-63" value="QueryProducer" style="shape=process;whiteSpace=wrap;html=1;backgroundOutline=1;" parent="1" vertex="1">
          <mxGeometry x="720" y="532" width="120" height="60" as="geometry" />
        </mxCell>
        <mxCell id="MOReU7AFXgFduFPL6K6e-71" style="edgeStyle=orthogonalEdgeStyle;rounded=0;orthogonalLoop=1;jettySize=auto;html=1;entryX=1;entryY=0.5;entryDx=0;entryDy=0;" parent="1" source="MOReU7AFXgFduFPL6K6e-68" target="MOReU7AFXgFduFPL6K6e-63" edge="1">
          <mxGeometry relative="1" as="geometry" />
        </mxCell>
        <mxCell id="MOReU7AFXgFduFPL6K6e-75" value="" style="edgeStyle=orthogonalEdgeStyle;rounded=0;orthogonalLoop=1;jettySize=auto;html=1;exitX=1;exitY=0.75;exitDx=0;exitDy=0;entryX=0;entryY=0.75;entryDx=0;entryDy=0;dashed=1;dashPattern=1 1;" parent="1" source="MOReU7AFXgFduFPL6K6e-68" target="MOReU7AFXgFduFPL6K6e-74" edge="1">
          <mxGeometry relative="1" as="geometry" />
        </mxCell>
        <mxCell id="MOReU7AFXgFduFPL6K6e-76" value="(4-1) compile" style="edgeLabel;html=1;align=center;verticalAlign=middle;resizable=0;points=[];" parent="MOReU7AFXgFduFPL6K6e-75" vertex="1" connectable="0">
          <mxGeometry x="0.2333" y="3" relative="1" as="geometry">
            <mxPoint x="-16" y="2" as="offset" />
          </mxGeometry>
        </mxCell>
        <mxCell id="MOReU7AFXgFduFPL6K6e-68" value="AbstractSharedSessionContract" style="shape=process;whiteSpace=wrap;html=1;backgroundOutline=1;" parent="1" vertex="1">
          <mxGeometry x="810" y="710" width="120" height="60" as="geometry" />
        </mxCell>
        <mxCell id="MOReU7AFXgFduFPL6K6e-105" value="" style="edgeStyle=orthogonalEdgeStyle;rounded=0;orthogonalLoop=1;jettySize=auto;html=1;dashed=1;exitX=0;exitY=0.75;exitDx=0;exitDy=0;" parent="1" source="MOReU7AFXgFduFPL6K6e-72" target="MOReU7AFXgFduFPL6K6e-104" edge="1">
          <mxGeometry relative="1" as="geometry" />
        </mxCell>
        <mxCell id="MOReU7AFXgFduFPL6K6e-111" value="invoke" style="edgeLabel;html=1;align=center;verticalAlign=middle;resizable=0;points=[];" parent="MOReU7AFXgFduFPL6K6e-105" vertex="1" connectable="0">
          <mxGeometry x="-0.0152" y="-1" relative="1" as="geometry">
            <mxPoint as="offset" />
          </mxGeometry>
        </mxCell>
        <mxCell id="MOReU7AFXgFduFPL6K6e-167" style="edgeStyle=orthogonalEdgeStyle;rounded=0;orthogonalLoop=1;jettySize=auto;html=1;exitX=0.75;exitY=1;exitDx=0;exitDy=0;entryX=0.5;entryY=0;entryDx=0;entryDy=0;dashed=1;dashPattern=1 1;" parent="1" source="MOReU7AFXgFduFPL6K6e-72" target="MOReU7AFXgFduFPL6K6e-144" edge="1">
          <mxGeometry relative="1" as="geometry" />
        </mxCell>
        <mxCell id="MOReU7AFXgFduFPL6K6e-168" value="(0-4) resolveQuery" style="edgeLabel;html=1;align=center;verticalAlign=middle;resizable=0;points=[];" parent="MOReU7AFXgFduFPL6K6e-167" vertex="1" connectable="0">
          <mxGeometry x="-0.1288" y="1" relative="1" as="geometry">
            <mxPoint as="offset" />
          </mxGeometry>
        </mxCell>
        <mxCell id="MOReU7AFXgFduFPL6K6e-72" value="QueryExecutorMethodInterceptor" style="shape=process;whiteSpace=wrap;html=1;backgroundOutline=1;" parent="1" vertex="1">
          <mxGeometry x="380" y="-410" width="310" height="130" as="geometry" />
        </mxCell>
        <mxCell id="MOReU7AFXgFduFPL6K6e-79" value="" style="edgeStyle=orthogonalEdgeStyle;rounded=0;orthogonalLoop=1;jettySize=auto;html=1;dashed=1;dashPattern=1 1;exitX=1;exitY=0.75;exitDx=0;exitDy=0;entryX=0;entryY=0.75;entryDx=0;entryDy=0;" parent="1" source="MOReU7AFXgFduFPL6K6e-74" target="MOReU7AFXgFduFPL6K6e-78" edge="1">
          <mxGeometry relative="1" as="geometry" />
        </mxCell>
        <mxCell id="MOReU7AFXgFduFPL6K6e-80" value="(4-2) interpret" style="edgeLabel;html=1;align=center;verticalAlign=middle;resizable=0;points=[];" parent="MOReU7AFXgFduFPL6K6e-79" vertex="1" connectable="0">
          <mxGeometry x="-0.125" y="4" relative="1" as="geometry">
            <mxPoint y="3" as="offset" />
          </mxGeometry>
        </mxCell>
        <mxCell id="MOReU7AFXgFduFPL6K6e-74" value="CriteriaCompiler" style="shape=process;whiteSpace=wrap;html=1;backgroundOutline=1;" parent="1" vertex="1">
          <mxGeometry x="1050" y="710" width="120" height="60" as="geometry" />
        </mxCell>
        <mxCell id="MOReU7AFXgFduFPL6K6e-86" value="(4-3) render" style="edgeStyle=orthogonalEdgeStyle;rounded=0;orthogonalLoop=1;jettySize=auto;html=1;exitX=1;exitY=0.25;exitDx=0;exitDy=0;entryX=0;entryY=0.75;entryDx=0;entryDy=0;dashed=1;dashPattern=1 1;" parent="1" source="MOReU7AFXgFduFPL6K6e-81" target="MOReU7AFXgFduFPL6K6e-84" edge="1">
          <mxGeometry relative="1" as="geometry" />
        </mxCell>
        <mxCell id="MOReU7AFXgFduFPL6K6e-78" value="CompilableCriteria" style="shape=process;whiteSpace=wrap;html=1;backgroundOutline=1;" parent="1" vertex="1">
          <mxGeometry x="1268" y="710" width="120" height="60" as="geometry" />
        </mxCell>
        <mxCell id="MOReU7AFXgFduFPL6K6e-83" style="edgeStyle=orthogonalEdgeStyle;rounded=0;orthogonalLoop=1;jettySize=auto;html=1;exitX=0.5;exitY=0;exitDx=0;exitDy=0;entryX=0.5;entryY=1;entryDx=0;entryDy=0;" parent="1" source="MOReU7AFXgFduFPL6K6e-81" target="MOReU7AFXgFduFPL6K6e-78" edge="1">
          <mxGeometry relative="1" as="geometry" />
        </mxCell>
        <mxCell id="MOReU7AFXgFduFPL6K6e-88" style="edgeStyle=orthogonalEdgeStyle;rounded=0;orthogonalLoop=1;jettySize=auto;html=1;entryX=1.017;entryY=0.867;entryDx=0;entryDy=0;entryPerimeter=0;dashed=1;dashPattern=1 1;" parent="1" source="MOReU7AFXgFduFPL6K6e-81" target="MOReU7AFXgFduFPL6K6e-49" edge="1">
          <mxGeometry relative="1" as="geometry" />
        </mxCell>
        <mxCell id="MOReU7AFXgFduFPL6K6e-89" value="(4- 4) createQuery(queryString)" style="edgeLabel;html=1;align=center;verticalAlign=middle;resizable=0;points=[];" parent="MOReU7AFXgFduFPL6K6e-88" vertex="1" connectable="0">
          <mxGeometry x="-0.0105" y="-1" relative="1" as="geometry">
            <mxPoint as="offset" />
          </mxGeometry>
        </mxCell>
        <mxCell id="MOReU7AFXgFduFPL6K6e-81" value="CriteriaQueryImpl" style="shape=process;whiteSpace=wrap;html=1;backgroundOutline=1;" parent="1" vertex="1">
          <mxGeometry x="1268" y="832" width="120" height="60" as="geometry" />
        </mxCell>
        <mxCell id="MOReU7AFXgFduFPL6K6e-120" value="" style="edgeStyle=orthogonalEdgeStyle;rounded=0;orthogonalLoop=1;jettySize=auto;html=1;dashed=1;" parent="1" source="MOReU7AFXgFduFPL6K6e-84" target="MOReU7AFXgFduFPL6K6e-119" edge="1">
          <mxGeometry relative="1" as="geometry" />
        </mxCell>
        <mxCell id="MOReU7AFXgFduFPL6K6e-84" value="QueryStructure" style="shape=process;whiteSpace=wrap;html=1;backgroundOutline=1;" parent="1" vertex="1">
          <mxGeometry x="1450" y="710" width="120" height="60" as="geometry" />
        </mxCell>
        <mxCell id="MOReU7AFXgFduFPL6K6e-87" value="renderSelectionClause&lt;br&gt;renderFromCluase&lt;br&gt;renderWhereClause&lt;br&gt;renderGroupByClause" style="text;html=1;align=center;verticalAlign=middle;resizable=0;points=[];autosize=1;strokeColor=none;fillColor=none;" parent="1" vertex="1">
          <mxGeometry x="1440" y="780" width="140" height="70" as="geometry" />
        </mxCell>
        <mxCell id="MOReU7AFXgFduFPL6K6e-95" value="Query" style="shape=process;whiteSpace=wrap;html=1;backgroundOutline=1;" parent="1" vertex="1">
          <mxGeometry x="-350" y="70" width="120" height="60" as="geometry" />
        </mxCell>
        <mxCell id="MOReU7AFXgFduFPL6K6e-101" style="edgeStyle=orthogonalEdgeStyle;rounded=0;orthogonalLoop=1;jettySize=auto;html=1;dashed=1;dashPattern=1 1;" parent="1" source="MOReU7AFXgFduFPL6K6e-96" target="MOReU7AFXgFduFPL6K6e-102" edge="1">
          <mxGeometry relative="1" as="geometry">
            <mxPoint x="-390" y="200" as="targetPoint" />
          </mxGeometry>
        </mxCell>
        <mxCell id="2TI_Rl4MxW1gEGPfBDP3-9" value="" style="edgeStyle=orthogonalEdgeStyle;rounded=0;orthogonalLoop=1;jettySize=auto;html=1;" parent="1" source="MOReU7AFXgFduFPL6K6e-96" target="MOReU7AFXgFduFPL6K6e-102" edge="1">
          <mxGeometry relative="1" as="geometry" />
        </mxCell>
        <mxCell id="2TI_Rl4MxW1gEGPfBDP3-11" style="edgeStyle=orthogonalEdgeStyle;rounded=0;orthogonalLoop=1;jettySize=auto;html=1;exitX=0.5;exitY=1;exitDx=0;exitDy=0;entryX=0.5;entryY=1;entryDx=0;entryDy=0;dashed=1;" parent="1" source="MOReU7AFXgFduFPL6K6e-96" target="2TI_Rl4MxW1gEGPfBDP3-6" edge="1">
          <mxGeometry relative="1" as="geometry">
            <Array as="points">
              <mxPoint x="-390" y="430" />
              <mxPoint x="-610" y="430" />
            </Array>
          </mxGeometry>
        </mxCell>
        <mxCell id="2TI_Rl4MxW1gEGPfBDP3-12" value="(6-1) getSingleResult" style="edgeLabel;html=1;align=center;verticalAlign=middle;resizable=0;points=[];" parent="2TI_Rl4MxW1gEGPfBDP3-11" vertex="1" connectable="0">
          <mxGeometry x="0.0962" relative="1" as="geometry">
            <mxPoint x="18" as="offset" />
          </mxGeometry>
        </mxCell>
        <mxCell id="MOReU7AFXgFduFPL6K6e-96" value="&lt;pre style=&quot;background-color: rgb(255, 255, 255); font-family: &amp;quot;JetBrains Mono&amp;quot;, monospace; font-size: 9.8pt;&quot;&gt;&lt;span style=&quot;color:#24292e;&quot;&gt;CriteriaQueryTypeQueryAdapter&lt;/span&gt;&lt;/pre&gt;" style="shape=process;whiteSpace=wrap;html=1;backgroundOutline=1;" parent="1" vertex="1">
          <mxGeometry x="-450" y="290" width="120" height="60" as="geometry" />
        </mxCell>
        <mxCell id="MOReU7AFXgFduFPL6K6e-103" style="edgeStyle=orthogonalEdgeStyle;rounded=0;orthogonalLoop=1;jettySize=auto;html=1;exitX=0.5;exitY=0;exitDx=0;exitDy=0;entryX=0.5;entryY=1;entryDx=0;entryDy=0;" parent="1" source="MOReU7AFXgFduFPL6K6e-102" target="MOReU7AFXgFduFPL6K6e-95" edge="1">
          <mxGeometry relative="1" as="geometry" />
        </mxCell>
        <mxCell id="2TI_Rl4MxW1gEGPfBDP3-18" value="impl" style="edgeLabel;html=1;align=center;verticalAlign=middle;resizable=0;points=[];" parent="MOReU7AFXgFduFPL6K6e-103" vertex="1" connectable="0">
          <mxGeometry x="-0.0071" y="3" relative="1" as="geometry">
            <mxPoint y="1" as="offset" />
          </mxGeometry>
        </mxCell>
        <mxCell id="MOReU7AFXgFduFPL6K6e-102" value="QueryImplementor" style="shape=process;whiteSpace=wrap;html=1;backgroundOutline=1;" parent="1" vertex="1">
          <mxGeometry x="-450" y="170" width="120" height="60" as="geometry" />
        </mxCell>
        <mxCell id="MOReU7AFXgFduFPL6K6e-104" value="RepositoryQueryMethodInvoker" style="shape=process;whiteSpace=wrap;html=1;backgroundOutline=1;" parent="1" vertex="1">
          <mxGeometry x="171" y="-194" width="120" height="60" as="geometry" />
        </mxCell>
        <mxCell id="MOReU7AFXgFduFPL6K6e-110" style="edgeStyle=orthogonalEdgeStyle;rounded=0;orthogonalLoop=1;jettySize=auto;html=1;exitX=0;exitY=0.75;exitDx=0;exitDy=0;entryX=1;entryY=0.75;entryDx=0;entryDy=0;dashed=1;dashPattern=1 1;" parent="1" source="MOReU7AFXgFduFPL6K6e-108" target="MOReU7AFXgFduFPL6K6e-72" edge="1">
          <mxGeometry relative="1" as="geometry" />
        </mxCell>
        <mxCell id="MOReU7AFXgFduFPL6K6e-112" value="invoke" style="edgeLabel;html=1;align=center;verticalAlign=middle;resizable=0;points=[];" parent="MOReU7AFXgFduFPL6K6e-110" vertex="1" connectable="0">
          <mxGeometry x="-0.0625" y="4" relative="1" as="geometry">
            <mxPoint as="offset" />
          </mxGeometry>
        </mxCell>
        <mxCell id="MOReU7AFXgFduFPL6K6e-164" style="edgeStyle=orthogonalEdgeStyle;rounded=0;orthogonalLoop=1;jettySize=auto;html=1;exitX=0;exitY=0.25;exitDx=0;exitDy=0;dashed=1;entryX=1;entryY=0.25;entryDx=0;entryDy=0;" parent="1" source="MOReU7AFXgFduFPL6K6e-108" target="MOReU7AFXgFduFPL6K6e-72" edge="1">
          <mxGeometry relative="1" as="geometry">
            <mxPoint x="753.5000000000005" y="-255.66666666666674" as="targetPoint" />
          </mxGeometry>
        </mxCell>
        <mxCell id="MOReU7AFXgFduFPL6K6e-165" value="advice" style="edgeLabel;html=1;align=center;verticalAlign=middle;resizable=0;points=[];" parent="MOReU7AFXgFduFPL6K6e-164" vertex="1" connectable="0">
          <mxGeometry x="-0.0663" y="1" relative="1" as="geometry">
            <mxPoint as="offset" />
          </mxGeometry>
        </mxCell>
        <mxCell id="MOReU7AFXgFduFPL6K6e-108" value="JpaRepository&lt;br&gt;Proxy" style="shape=process;whiteSpace=wrap;html=1;backgroundOutline=1;" parent="1" vertex="1">
          <mxGeometry x="890" y="-270" width="120" height="60" as="geometry" />
        </mxCell>
        <mxCell id="MOReU7AFXgFduFPL6K6e-116" style="edgeStyle=orthogonalEdgeStyle;rounded=0;orthogonalLoop=1;jettySize=auto;html=1;exitX=0.5;exitY=1;exitDx=0;exitDy=0;dashed=1;dashPattern=1 1;" parent="1" source="MOReU7AFXgFduFPL6K6e-114" edge="1">
          <mxGeometry relative="1" as="geometry">
            <mxPoint x="230" y="90" as="targetPoint" />
          </mxGeometry>
        </mxCell>
        <mxCell id="MOReU7AFXgFduFPL6K6e-117" value="execute" style="edgeLabel;html=1;align=center;verticalAlign=middle;resizable=0;points=[];rotation=90;" parent="MOReU7AFXgFduFPL6K6e-116" vertex="1" connectable="0">
          <mxGeometry x="-0.166" y="-1" relative="1" as="geometry">
            <mxPoint x="4" as="offset" />
          </mxGeometry>
        </mxCell>
        <mxCell id="MOReU7AFXgFduFPL6K6e-121" style="edgeStyle=orthogonalEdgeStyle;rounded=0;orthogonalLoop=1;jettySize=auto;html=1;exitX=0.5;exitY=0;exitDx=0;exitDy=0;entryX=0.5;entryY=1;entryDx=0;entryDy=0;" parent="1" source="MOReU7AFXgFduFPL6K6e-114" target="MOReU7AFXgFduFPL6K6e-104" edge="1">
          <mxGeometry relative="1" as="geometry" />
        </mxCell>
        <mxCell id="MOReU7AFXgFduFPL6K6e-114" value="RepositoryQueryMethodInvoker" style="shape=process;whiteSpace=wrap;html=1;backgroundOutline=1;" parent="1" vertex="1">
          <mxGeometry x="171" y="-54" width="120" height="60" as="geometry" />
        </mxCell>
        <mxCell id="MOReU7AFXgFduFPL6K6e-119" value="RenderContext" style="shape=process;whiteSpace=wrap;html=1;backgroundOutline=1;" parent="1" vertex="1">
          <mxGeometry x="1450" y="570" width="120" height="60" as="geometry" />
        </mxCell>
        <mxCell id="MOReU7AFXgFduFPL6K6e-123" value="PartTree" style="shape=process;whiteSpace=wrap;html=1;backgroundOutline=1;" parent="1" vertex="1">
          <mxGeometry x="70" y="580" width="120" height="60" as="geometry" />
        </mxCell>
        <mxCell id="MOReU7AFXgFduFPL6K6e-136" value="" style="edgeStyle=orthogonalEdgeStyle;rounded=0;orthogonalLoop=1;jettySize=auto;html=1;dashed=1;dashPattern=1 1;exitX=0.5;exitY=0;exitDx=0;exitDy=0;entryX=0.25;entryY=1;entryDx=0;entryDy=0;" parent="1" source="MOReU7AFXgFduFPL6K6e-138" target="MOReU7AFXgFduFPL6K6e-72" edge="1">
          <mxGeometry relative="1" as="geometry">
            <mxPoint x="730.0000000000005" y="-104" as="targetPoint" />
          </mxGeometry>
        </mxCell>
        <mxCell id="MOReU7AFXgFduFPL6K6e-137" value="(0-2) new" style="edgeLabel;html=1;align=center;verticalAlign=middle;resizable=0;points=[];" parent="MOReU7AFXgFduFPL6K6e-136" vertex="1" connectable="0">
          <mxGeometry x="0.0211" y="-1" relative="1" as="geometry">
            <mxPoint y="6" as="offset" />
          </mxGeometry>
        </mxCell>
        <mxCell id="MOReU7AFXgFduFPL6K6e-166" style="edgeStyle=orthogonalEdgeStyle;rounded=0;orthogonalLoop=1;jettySize=auto;html=1;exitX=1;exitY=0.5;exitDx=0;exitDy=0;entryX=0.5;entryY=1;entryDx=0;entryDy=0;dashed=1;dashPattern=1 1;" parent="1" source="MOReU7AFXgFduFPL6K6e-138" target="MOReU7AFXgFduFPL6K6e-108" edge="1">
          <mxGeometry relative="1" as="geometry" />
        </mxCell>
        <mxCell id="MOReU7AFXgFduFPL6K6e-138" value="JpaRepositoryFactory" style="shape=process;whiteSpace=wrap;html=1;backgroundOutline=1;" parent="1" vertex="1">
          <mxGeometry x="530" y="-134" width="120" height="60" as="geometry" />
        </mxCell>
        <mxCell id="MOReU7AFXgFduFPL6K6e-139" style="edgeStyle=orthogonalEdgeStyle;rounded=0;orthogonalLoop=1;jettySize=auto;html=1;dashed=1;" parent="1" source="MOReU7AFXgFduFPL6K6e-141" target="MOReU7AFXgFduFPL6K6e-138" edge="1">
          <mxGeometry relative="1" as="geometry" />
        </mxCell>
        <mxCell id="MOReU7AFXgFduFPL6K6e-140" value="(0-1) getRepository" style="edgeLabel;html=1;align=center;verticalAlign=middle;resizable=0;points=[];" parent="MOReU7AFXgFduFPL6K6e-139" vertex="1" connectable="0">
          <mxGeometry x="0.3452" y="2" relative="1" as="geometry">
            <mxPoint as="offset" />
          </mxGeometry>
        </mxCell>
        <mxCell id="MOReU7AFXgFduFPL6K6e-141" value="Actor" style="shape=umlActor;verticalLabelPosition=bottom;verticalAlign=top;html=1;outlineConnect=0;" parent="1" vertex="1">
          <mxGeometry x="410" y="-36" width="30" height="60" as="geometry" />
        </mxCell>
        <mxCell id="MOReU7AFXgFduFPL6K6e-149" value="" style="edgeStyle=orthogonalEdgeStyle;rounded=0;orthogonalLoop=1;jettySize=auto;html=1;dashed=1;dashPattern=1 1;exitX=0.5;exitY=1;exitDx=0;exitDy=0;entryX=0.5;entryY=0;entryDx=0;entryDy=0;" parent="1" source="MOReU7AFXgFduFPL6K6e-72" target="MOReU7AFXgFduFPL6K6e-148" edge="1">
          <mxGeometry relative="1" as="geometry">
            <mxPoint x="790.0000000000005" y="-74" as="sourcePoint" />
            <Array as="points">
              <mxPoint x="690" y="-280" />
              <mxPoint x="690" y="-140" />
              <mxPoint x="830" y="-140" />
            </Array>
          </mxGeometry>
        </mxCell>
        <mxCell id="MOReU7AFXgFduFPL6K6e-150" value="(0-3) getQueryMethods" style="edgeLabel;html=1;align=center;verticalAlign=middle;resizable=0;points=[];" parent="MOReU7AFXgFduFPL6K6e-149" vertex="1" connectable="0">
          <mxGeometry x="-0.075" y="-1" relative="1" as="geometry">
            <mxPoint as="offset" />
          </mxGeometry>
        </mxCell>
        <mxCell id="MOReU7AFXgFduFPL6K6e-144" value="QueryLookupStrategy" style="shape=process;whiteSpace=wrap;html=1;backgroundOutline=1;" parent="1" vertex="1">
          <mxGeometry x="1010" y="-134" width="120" height="60" as="geometry" />
        </mxCell>
        <mxCell id="MOReU7AFXgFduFPL6K6e-145" style="edgeStyle=orthogonalEdgeStyle;rounded=0;orthogonalLoop=1;jettySize=auto;html=1;entryX=0.5;entryY=1;entryDx=0;entryDy=0;dashed=1;" parent="1" source="MOReU7AFXgFduFPL6K6e-146" target="MOReU7AFXgFduFPL6K6e-144" edge="1">
          <mxGeometry relative="1" as="geometry" />
        </mxCell>
        <mxCell id="MOReU7AFXgFduFPL6K6e-160" style="edgeStyle=orthogonalEdgeStyle;rounded=0;orthogonalLoop=1;jettySize=auto;html=1;exitX=0.5;exitY=1;exitDx=0;exitDy=0;dashed=1;dashPattern=1 1;" parent="1" source="MOReU7AFXgFduFPL6K6e-146" target="MOReU7AFXgFduFPL6K6e-158" edge="1">
          <mxGeometry relative="1" as="geometry" />
        </mxCell>
        <mxCell id="MOReU7AFXgFduFPL6K6e-161" value="(0-5) new" style="edgeLabel;html=1;align=center;verticalAlign=middle;resizable=0;points=[];" parent="MOReU7AFXgFduFPL6K6e-160" vertex="1" connectable="0">
          <mxGeometry x="-0.0448" y="2" relative="1" as="geometry">
            <mxPoint as="offset" />
          </mxGeometry>
        </mxCell>
        <mxCell id="MOReU7AFXgFduFPL6K6e-146" value="CreateIfNotFoundQueryLookupStrategy" style="shape=process;whiteSpace=wrap;html=1;backgroundOutline=1;" parent="1" vertex="1">
          <mxGeometry x="1010" y="-4" width="120" height="60" as="geometry" />
        </mxCell>
        <mxCell id="v-ly6j8C9qO4ayaW6zzN-2" value="" style="edgeStyle=orthogonalEdgeStyle;rounded=0;orthogonalLoop=1;jettySize=auto;html=1;" parent="1" source="MOReU7AFXgFduFPL6K6e-148" target="v-ly6j8C9qO4ayaW6zzN-1" edge="1">
          <mxGeometry relative="1" as="geometry" />
        </mxCell>
        <mxCell id="MOReU7AFXgFduFPL6K6e-148" value="RepositoryInformation" style="shape=process;whiteSpace=wrap;html=1;backgroundOutline=1;" parent="1" vertex="1">
          <mxGeometry x="770" y="-64" width="120" height="60" as="geometry" />
        </mxCell>
        <mxCell id="MOReU7AFXgFduFPL6K6e-153" style="edgeStyle=orthogonalEdgeStyle;rounded=0;orthogonalLoop=1;jettySize=auto;html=1;entryX=0.5;entryY=1;entryDx=0;entryDy=0;dashed=1;" parent="1" source="MOReU7AFXgFduFPL6K6e-152" target="MOReU7AFXgFduFPL6K6e-1" edge="1">
          <mxGeometry relative="1" as="geometry" />
        </mxCell>
        <mxCell id="MOReU7AFXgFduFPL6K6e-154" value="new" style="edgeLabel;html=1;align=center;verticalAlign=middle;resizable=0;points=[];" parent="MOReU7AFXgFduFPL6K6e-153" vertex="1" connectable="0">
          <mxGeometry x="-0.1371" y="-3" relative="1" as="geometry">
            <mxPoint as="offset" />
          </mxGeometry>
        </mxCell>
        <mxCell id="MOReU7AFXgFduFPL6K6e-152" value="JpaQueryMethodFactory" style="shape=process;whiteSpace=wrap;html=1;backgroundOutline=1;" parent="1" vertex="1">
          <mxGeometry x="880" y="380" width="120" height="60" as="geometry" />
        </mxCell>
        <mxCell id="MOReU7AFXgFduFPL6K6e-157" style="edgeStyle=orthogonalEdgeStyle;rounded=0;orthogonalLoop=1;jettySize=auto;html=1;entryX=0.5;entryY=0;entryDx=0;entryDy=0;" parent="1" source="MOReU7AFXgFduFPL6K6e-155" target="MOReU7AFXgFduFPL6K6e-152" edge="1">
          <mxGeometry relative="1" as="geometry" />
        </mxCell>
        <mxCell id="MOReU7AFXgFduFPL6K6e-155" value="DefaultJpaQueryMethodFactory" style="shape=process;whiteSpace=wrap;html=1;backgroundOutline=1;" parent="1" vertex="1">
          <mxGeometry x="880" y="240" width="120" height="60" as="geometry" />
        </mxCell>
        <mxCell id="MOReU7AFXgFduFPL6K6e-158" value="PartTreeJpaQuery" style="shape=process;whiteSpace=wrap;html=1;backgroundOutline=1;" parent="1" vertex="1">
          <mxGeometry x="1080" y="120" width="120" height="60" as="geometry" />
        </mxCell>
        <mxCell id="2TI_Rl4MxW1gEGPfBDP3-2" style="edgeStyle=orthogonalEdgeStyle;rounded=0;orthogonalLoop=1;jettySize=auto;html=1;entryX=0.5;entryY=1;entryDx=0;entryDy=0;" parent="1" source="2TI_Rl4MxW1gEGPfBDP3-1" target="MOReU7AFXgFduFPL6K6e-34" edge="1">
          <mxGeometry relative="1" as="geometry" />
        </mxCell>
        <mxCell id="2TI_Rl4MxW1gEGPfBDP3-1" value="QueryImpl" style="shape=process;whiteSpace=wrap;html=1;backgroundOutline=1;" parent="1" vertex="1">
          <mxGeometry x="10" y="130" width="120" height="60" as="geometry" />
        </mxCell>
        <mxCell id="2TI_Rl4MxW1gEGPfBDP3-44" style="edgeStyle=orthogonalEdgeStyle;rounded=0;orthogonalLoop=1;jettySize=auto;html=1;dashed=1;" parent="1" source="2TI_Rl4MxW1gEGPfBDP3-3" target="2TI_Rl4MxW1gEGPfBDP3-43" edge="1">
          <mxGeometry relative="1" as="geometry" />
        </mxCell>
        <mxCell id="2TI_Rl4MxW1gEGPfBDP3-45" value="(6-8)&lt;br&gt;extract(preparedStatement)" style="edgeLabel;html=1;align=center;verticalAlign=middle;resizable=0;points=[];" parent="2TI_Rl4MxW1gEGPfBDP3-44" vertex="1" connectable="0">
          <mxGeometry x="-0.081" y="1" relative="1" as="geometry">
            <mxPoint as="offset" />
          </mxGeometry>
        </mxCell>
        <mxCell id="oIQt7A0wjl_YIzGfcPL9-4" style="edgeStyle=orthogonalEdgeStyle;rounded=0;orthogonalLoop=1;jettySize=auto;html=1;exitX=0.5;exitY=0;exitDx=0;exitDy=0;dashed=1;" parent="1" target="2TI_Rl4MxW1gEGPfBDP3-3" edge="1">
          <mxGeometry relative="1" as="geometry">
            <mxPoint x="-568" y="575" as="targetPoint" />
            <mxPoint x="-508" y="560" as="sourcePoint" />
            <Array as="points">
              <mxPoint x="-508" y="468" />
              <mxPoint x="-652" y="468" />
              <mxPoint x="-652" y="575" />
            </Array>
          </mxGeometry>
        </mxCell>
        <mxCell id="oIQt7A0wjl_YIzGfcPL9-5" value="(7-1)&lt;br&gt;extractRowsFromResultSet()&lt;br&gt;(7-3)&lt;br&gt;extractRowFromResultSet()&lt;br&gt;extractKeysFromResultset()&lt;br&gt;(7-4) getRow()" style="edgeLabel;html=1;align=center;verticalAlign=middle;resizable=0;points=[];" parent="oIQt7A0wjl_YIzGfcPL9-4" vertex="1" connectable="0">
          <mxGeometry x="0.2926" y="-2" relative="1" as="geometry">
            <mxPoint y="-10" as="offset" />
          </mxGeometry>
        </mxCell>
        <mxCell id="oIQt7A0wjl_YIzGfcPL9-7" style="edgeStyle=orthogonalEdgeStyle;rounded=0;orthogonalLoop=1;jettySize=auto;html=1;entryX=1;entryY=0.75;entryDx=0;entryDy=0;dashed=1;" parent="1" source="2TI_Rl4MxW1gEGPfBDP3-3" target="oIQt7A0wjl_YIzGfcPL9-6" edge="1">
          <mxGeometry relative="1" as="geometry" />
        </mxCell>
        <mxCell id="oIQt7A0wjl_YIzGfcPL9-8" value="next()" style="edgeLabel;html=1;align=center;verticalAlign=middle;resizable=0;points=[];" parent="oIQt7A0wjl_YIzGfcPL9-7" vertex="1" connectable="0">
          <mxGeometry x="0.0055" y="2" relative="1" as="geometry">
            <mxPoint as="offset" />
          </mxGeometry>
        </mxCell>
        <mxCell id="oIQt7A0wjl_YIzGfcPL9-10" style="edgeStyle=orthogonalEdgeStyle;rounded=0;orthogonalLoop=1;jettySize=auto;html=1;exitX=0;exitY=0.75;exitDx=0;exitDy=0;entryX=0;entryY=0.25;entryDx=0;entryDy=0;dashed=1;" parent="1" source="2TI_Rl4MxW1gEGPfBDP3-3" target="oIQt7A0wjl_YIzGfcPL9-9" edge="1">
          <mxGeometry relative="1" as="geometry" />
        </mxCell>
        <mxCell id="oIQt7A0wjl_YIzGfcPL9-11" value="(7-5) getEntity(key)" style="edgeLabel;html=1;align=center;verticalAlign=middle;resizable=0;points=[];" parent="oIQt7A0wjl_YIzGfcPL9-10" vertex="1" connectable="0">
          <mxGeometry x="-0.8269" y="2" relative="1" as="geometry">
            <mxPoint y="-1" as="offset" />
          </mxGeometry>
        </mxCell>
        <mxCell id="2TI_Rl4MxW1gEGPfBDP3-3" value="Loader" style="shape=process;whiteSpace=wrap;html=1;backgroundOutline=1;" parent="1" vertex="1">
          <mxGeometry x="-570" y="560" width="120" height="60" as="geometry" />
        </mxCell>
        <mxCell id="2TI_Rl4MxW1gEGPfBDP3-5" style="edgeStyle=orthogonalEdgeStyle;rounded=0;orthogonalLoop=1;jettySize=auto;html=1;entryX=0.5;entryY=1;entryDx=0;entryDy=0;" parent="1" source="2TI_Rl4MxW1gEGPfBDP3-4" target="2TI_Rl4MxW1gEGPfBDP3-3" edge="1">
          <mxGeometry relative="1" as="geometry" />
        </mxCell>
        <mxCell id="2TI_Rl4MxW1gEGPfBDP3-4" value="QueryLoader" style="shape=process;whiteSpace=wrap;html=1;backgroundOutline=1;" parent="1" vertex="1">
          <mxGeometry x="-570" y="680" width="120" height="60" as="geometry" />
        </mxCell>
        <mxCell id="2TI_Rl4MxW1gEGPfBDP3-14" style="edgeStyle=orthogonalEdgeStyle;rounded=0;orthogonalLoop=1;jettySize=auto;html=1;exitX=0.5;exitY=0;exitDx=0;exitDy=0;" parent="1" source="2TI_Rl4MxW1gEGPfBDP3-6" target="2TI_Rl4MxW1gEGPfBDP3-13" edge="1">
          <mxGeometry relative="1" as="geometry" />
        </mxCell>
        <mxCell id="2TI_Rl4MxW1gEGPfBDP3-17" value="extend" style="edgeLabel;html=1;align=center;verticalAlign=middle;resizable=0;points=[];" parent="2TI_Rl4MxW1gEGPfBDP3-14" vertex="1" connectable="0">
          <mxGeometry x="0.05" relative="1" as="geometry">
            <mxPoint x="1" y="1" as="offset" />
          </mxGeometry>
        </mxCell>
        <mxCell id="2TI_Rl4MxW1gEGPfBDP3-25" style="edgeStyle=orthogonalEdgeStyle;rounded=0;orthogonalLoop=1;jettySize=auto;html=1;exitX=0;exitY=0.5;exitDx=0;exitDy=0;entryX=0;entryY=0.75;entryDx=0;entryDy=0;dashed=1;" parent="1" source="2TI_Rl4MxW1gEGPfBDP3-6" target="2TI_Rl4MxW1gEGPfBDP3-13" edge="1">
          <mxGeometry relative="1" as="geometry">
            <Array as="points">
              <mxPoint x="-710" y="320" />
              <mxPoint x="-710" y="215" />
            </Array>
          </mxGeometry>
        </mxCell>
        <mxCell id="2TI_Rl4MxW1gEGPfBDP3-26" value="(6-2) list()" style="edgeLabel;html=1;align=center;verticalAlign=middle;resizable=0;points=[];" parent="2TI_Rl4MxW1gEGPfBDP3-25" vertex="1" connectable="0">
          <mxGeometry x="0.0839" y="-2" relative="1" as="geometry">
            <mxPoint as="offset" />
          </mxGeometry>
        </mxCell>
        <mxCell id="2TI_Rl4MxW1gEGPfBDP3-6" value="QueryImpl" style="shape=process;whiteSpace=wrap;html=1;backgroundOutline=1;" parent="1" vertex="1">
          <mxGeometry x="-670" y="290" width="120" height="60" as="geometry" />
        </mxCell>
        <mxCell id="2TI_Rl4MxW1gEGPfBDP3-15" style="edgeStyle=orthogonalEdgeStyle;rounded=0;orthogonalLoop=1;jettySize=auto;html=1;exitX=1;exitY=0.5;exitDx=0;exitDy=0;" parent="1" source="2TI_Rl4MxW1gEGPfBDP3-13" target="MOReU7AFXgFduFPL6K6e-102" edge="1">
          <mxGeometry relative="1" as="geometry" />
        </mxCell>
        <mxCell id="2TI_Rl4MxW1gEGPfBDP3-16" value="impl" style="edgeLabel;html=1;align=center;verticalAlign=middle;resizable=0;points=[];" parent="2TI_Rl4MxW1gEGPfBDP3-15" vertex="1" connectable="0">
          <mxGeometry x="-0.01" y="-2" relative="1" as="geometry">
            <mxPoint y="-3" as="offset" />
          </mxGeometry>
        </mxCell>
        <mxCell id="2TI_Rl4MxW1gEGPfBDP3-27" style="edgeStyle=orthogonalEdgeStyle;rounded=0;orthogonalLoop=1;jettySize=auto;html=1;exitX=0;exitY=0.25;exitDx=0;exitDy=0;entryX=0;entryY=0.75;entryDx=0;entryDy=0;dashed=1;" parent="1" source="2TI_Rl4MxW1gEGPfBDP3-13" target="2TI_Rl4MxW1gEGPfBDP3-22" edge="1">
          <mxGeometry relative="1" as="geometry">
            <Array as="points">
              <mxPoint x="-750" y="185" />
              <mxPoint x="-750" y="785" />
            </Array>
          </mxGeometry>
        </mxCell>
        <mxCell id="2TI_Rl4MxW1gEGPfBDP3-28" value="(6-3) list()" style="edgeLabel;html=1;align=center;verticalAlign=middle;resizable=0;points=[];" parent="2TI_Rl4MxW1gEGPfBDP3-27" vertex="1" connectable="0">
          <mxGeometry x="-0.7305" y="-1" relative="1" as="geometry">
            <mxPoint y="-1" as="offset" />
          </mxGeometry>
        </mxCell>
        <mxCell id="2TI_Rl4MxW1gEGPfBDP3-29" value="(6-3) list(query, queryParameters)" style="edgeLabel;html=1;align=center;verticalAlign=middle;resizable=0;points=[];" parent="2TI_Rl4MxW1gEGPfBDP3-27" vertex="1" connectable="0">
          <mxGeometry x="0.7849" y="-1" relative="1" as="geometry">
            <mxPoint x="1" as="offset" />
          </mxGeometry>
        </mxCell>
        <mxCell id="2TI_Rl4MxW1gEGPfBDP3-13" value="AbstractProducedQuery" style="shape=process;whiteSpace=wrap;html=1;backgroundOutline=1;" parent="1" vertex="1">
          <mxGeometry x="-670" y="170" width="120" height="60" as="geometry" />
        </mxCell>
        <mxCell id="2TI_Rl4MxW1gEGPfBDP3-22" value="SharedSessionContractImplementor" style="shape=process;whiteSpace=wrap;html=1;backgroundOutline=1;" parent="1" vertex="1">
          <mxGeometry x="155" y="740" width="120" height="60" as="geometry" />
        </mxCell>
        <mxCell id="2TI_Rl4MxW1gEGPfBDP3-39" style="edgeStyle=orthogonalEdgeStyle;rounded=0;orthogonalLoop=1;jettySize=auto;html=1;entryX=1;entryY=0.5;entryDx=0;entryDy=0;dashed=1;" parent="1" source="2TI_Rl4MxW1gEGPfBDP3-32" target="2TI_Rl4MxW1gEGPfBDP3-38" edge="1">
          <mxGeometry relative="1" as="geometry" />
        </mxCell>
        <mxCell id="2TI_Rl4MxW1gEGPfBDP3-40" value="(6-6) list()" style="edgeLabel;html=1;align=center;verticalAlign=middle;resizable=0;points=[];" parent="2TI_Rl4MxW1gEGPfBDP3-39" vertex="1" connectable="0">
          <mxGeometry x="0.2011" y="-4" relative="1" as="geometry">
            <mxPoint as="offset" />
          </mxGeometry>
        </mxCell>
        <mxCell id="2TI_Rl4MxW1gEGPfBDP3-32" value="HQLQueryPlan" style="shape=process;whiteSpace=wrap;html=1;backgroundOutline=1;" parent="1" vertex="1">
          <mxGeometry x="-240" y="940" width="120" height="60" as="geometry" />
        </mxCell>
        <mxCell id="2TI_Rl4MxW1gEGPfBDP3-33" value="QueryParameters" style="shape=process;whiteSpace=wrap;html=1;backgroundOutline=1;" parent="1" vertex="1">
          <mxGeometry x="-240" y="820" width="120" height="60" as="geometry" />
        </mxCell>
        <mxCell id="2TI_Rl4MxW1gEGPfBDP3-41" style="edgeStyle=orthogonalEdgeStyle;rounded=0;orthogonalLoop=1;jettySize=auto;html=1;entryX=0.5;entryY=1;entryDx=0;entryDy=0;dashed=1;" parent="1" source="2TI_Rl4MxW1gEGPfBDP3-38" target="2TI_Rl4MxW1gEGPfBDP3-4" edge="1">
          <mxGeometry relative="1" as="geometry" />
        </mxCell>
        <mxCell id="2TI_Rl4MxW1gEGPfBDP3-42" value="(6-7) list" style="edgeLabel;html=1;align=center;verticalAlign=middle;resizable=0;points=[];" parent="2TI_Rl4MxW1gEGPfBDP3-41" vertex="1" connectable="0">
          <mxGeometry x="-0.6455" y="3" relative="1" as="geometry">
            <mxPoint as="offset" />
          </mxGeometry>
        </mxCell>
        <mxCell id="2TI_Rl4MxW1gEGPfBDP3-38" value="QueryTranslator" style="shape=process;whiteSpace=wrap;html=1;backgroundOutline=1;" parent="1" vertex="1">
          <mxGeometry x="-470" y="940" width="120" height="60" as="geometry" />
        </mxCell>
        <mxCell id="2TI_Rl4MxW1gEGPfBDP3-47" style="edgeStyle=orthogonalEdgeStyle;rounded=0;orthogonalLoop=1;jettySize=auto;html=1;dashed=1;exitX=0.75;exitY=1;exitDx=0;exitDy=0;entryX=0.75;entryY=0;entryDx=0;entryDy=0;" parent="1" source="2TI_Rl4MxW1gEGPfBDP3-43" target="2TI_Rl4MxW1gEGPfBDP3-46" edge="1">
          <mxGeometry relative="1" as="geometry" />
        </mxCell>
        <mxCell id="2TI_Rl4MxW1gEGPfBDP3-48" value="(6-9)&lt;br&gt;executeQuery()" style="edgeLabel;html=1;align=center;verticalAlign=middle;resizable=0;points=[];" parent="2TI_Rl4MxW1gEGPfBDP3-47" vertex="1" connectable="0">
          <mxGeometry x="-0.1843" y="3" relative="1" as="geometry">
            <mxPoint as="offset" />
          </mxGeometry>
        </mxCell>
        <mxCell id="oIQt7A0wjl_YIzGfcPL9-1" style="edgeStyle=orthogonalEdgeStyle;rounded=0;orthogonalLoop=1;jettySize=auto;html=1;exitX=0;exitY=0.25;exitDx=0;exitDy=0;entryX=1;entryY=0.25;entryDx=0;entryDy=0;dashed=1;" parent="1" source="2TI_Rl4MxW1gEGPfBDP3-43" target="2TI_Rl4MxW1gEGPfBDP3-3" edge="1">
          <mxGeometry relative="1" as="geometry" />
        </mxCell>
        <mxCell id="oIQt7A0wjl_YIzGfcPL9-3" value="return resultSet" style="edgeLabel;html=1;align=center;verticalAlign=middle;resizable=0;points=[];" parent="oIQt7A0wjl_YIzGfcPL9-1" vertex="1" connectable="0">
          <mxGeometry x="-0.1481" y="-2" relative="1" as="geometry">
            <mxPoint as="offset" />
          </mxGeometry>
        </mxCell>
        <mxCell id="2TI_Rl4MxW1gEGPfBDP3-43" value="ResultSetReturn" style="shape=process;whiteSpace=wrap;html=1;backgroundOutline=1;" parent="1" vertex="1">
          <mxGeometry x="-230" y="560" width="120" height="60" as="geometry" />
        </mxCell>
        <mxCell id="2TI_Rl4MxW1gEGPfBDP3-49" style="edgeStyle=orthogonalEdgeStyle;rounded=0;orthogonalLoop=1;jettySize=auto;html=1;exitX=0.25;exitY=0;exitDx=0;exitDy=0;entryX=0.25;entryY=1;entryDx=0;entryDy=0;dashed=1;" parent="1" source="2TI_Rl4MxW1gEGPfBDP3-46" target="2TI_Rl4MxW1gEGPfBDP3-43" edge="1">
          <mxGeometry relative="1" as="geometry" />
        </mxCell>
        <mxCell id="2TI_Rl4MxW1gEGPfBDP3-50" value="return&lt;br&gt;rs" style="edgeLabel;html=1;align=center;verticalAlign=middle;resizable=0;points=[];" parent="2TI_Rl4MxW1gEGPfBDP3-49" vertex="1" connectable="0">
          <mxGeometry x="0.0275" y="-2" relative="1" as="geometry">
            <mxPoint as="offset" />
          </mxGeometry>
        </mxCell>
        <mxCell id="2TI_Rl4MxW1gEGPfBDP3-46" value="PreparedStatement" style="shape=process;whiteSpace=wrap;html=1;backgroundOutline=1;" parent="1" vertex="1">
          <mxGeometry x="-230" y="680" width="120" height="60" as="geometry" />
        </mxCell>
        <mxCell id="2TI_Rl4MxW1gEGPfBDP3-52" style="edgeStyle=orthogonalEdgeStyle;rounded=0;orthogonalLoop=1;jettySize=auto;html=1;entryX=1;entryY=0.5;entryDx=0;entryDy=0;" parent="1" source="2TI_Rl4MxW1gEGPfBDP3-51" target="2TI_Rl4MxW1gEGPfBDP3-43" edge="1">
          <mxGeometry relative="1" as="geometry" />
        </mxCell>
        <mxCell id="2TI_Rl4MxW1gEGPfBDP3-51" value="ResultSetReturnImpl" style="shape=process;whiteSpace=wrap;html=1;backgroundOutline=1;" parent="1" vertex="1">
          <mxGeometry x="-70" y="560" width="100" height="60" as="geometry" />
        </mxCell>
        <mxCell id="oIQt7A0wjl_YIzGfcPL9-6" value="ResultSet" style="shape=process;whiteSpace=wrap;html=1;backgroundOutline=1;" parent="1" vertex="1">
          <mxGeometry x="-902" y="545" width="120" height="60" as="geometry" />
        </mxCell>
        <mxCell id="oIQt7A0wjl_YIzGfcPL9-9" value="PersistenceContext" style="shape=process;whiteSpace=wrap;html=1;backgroundOutline=1;" parent="1" vertex="1">
          <mxGeometry x="-370" y="1060" width="190" height="130" as="geometry" />
        </mxCell>
        <mxCell id="v-ly6j8C9qO4ayaW6zzN-1" value="RepositoryMetadata" style="shape=process;whiteSpace=wrap;html=1;backgroundOutline=1;" parent="1" vertex="1">
          <mxGeometry x="770" y="90" width="120" height="60" as="geometry" />
        </mxCell>
        <mxCell id="v-ly6j8C9qO4ayaW6zzN-3" value="RepositoryInformationFactory(?)" style="shape=process;whiteSpace=wrap;html=1;backgroundOutline=1;" parent="1" vertex="1">
          <mxGeometry x="1148" y="-375" width="292" height="215" as="geometry" />
        </mxCell>
      </root>
    </mxGraphModel>
  </diagram>
  <diagram id="W7YdGDK1t24miOjn3FI1" name="Page-2">
    <mxGraphModel dx="2946" dy="1129" grid="1" gridSize="10" guides="1" tooltips="1" connect="1" arrows="1" fold="1" page="1" pageScale="1" pageWidth="827" pageHeight="1169" math="0" shadow="0">
      <root>
        <mxCell id="0" />
        <mxCell id="1" parent="0" />
        <mxCell id="eYe3twEenQZhyWE6A-Cx-1" value="LoadEventListener" style="shape=process;whiteSpace=wrap;html=1;backgroundOutline=1;" parent="1" vertex="1">
          <mxGeometry x="350" y="540" width="120" height="60" as="geometry" />
        </mxCell>
        <mxCell id="eYe3twEenQZhyWE6A-Cx-4" style="edgeStyle=orthogonalEdgeStyle;rounded=0;orthogonalLoop=1;jettySize=auto;html=1;exitX=0.5;exitY=0;exitDx=0;exitDy=0;entryX=0.5;entryY=1;entryDx=0;entryDy=0;" parent="1" source="eYe3twEenQZhyWE6A-Cx-2" target="eYe3twEenQZhyWE6A-Cx-1" edge="1">
          <mxGeometry relative="1" as="geometry" />
        </mxCell>
        <mxCell id="eYe3twEenQZhyWE6A-Cx-5" value="extends" style="edgeLabel;html=1;align=center;verticalAlign=middle;resizable=0;points=[];" parent="eYe3twEenQZhyWE6A-Cx-4" vertex="1" connectable="0">
          <mxGeometry x="-0.025" y="1" relative="1" as="geometry">
            <mxPoint as="offset" />
          </mxGeometry>
        </mxCell>
        <mxCell id="eYe3twEenQZhyWE6A-Cx-7" value="load()" style="edgeStyle=orthogonalEdgeStyle;rounded=0;orthogonalLoop=1;jettySize=auto;html=1;dashed=1;entryX=0;entryY=0.25;entryDx=0;entryDy=0;exitX=1;exitY=0.25;exitDx=0;exitDy=0;" parent="1" source="eYe3twEenQZhyWE6A-Cx-2" target="eYe3twEenQZhyWE6A-Cx-6" edge="1">
          <mxGeometry relative="1" as="geometry" />
        </mxCell>
        <mxCell id="eYe3twEenQZhyWE6A-Cx-2" value="DefaultLoadeventListener" style="shape=process;whiteSpace=wrap;html=1;backgroundOutline=1;" parent="1" vertex="1">
          <mxGeometry x="350" y="680" width="120" height="60" as="geometry" />
        </mxCell>
        <mxCell id="YsMnqwY8aBCkSEAm9X7z-3" style="edgeStyle=orthogonalEdgeStyle;rounded=0;orthogonalLoop=1;jettySize=auto;html=1;exitX=0;exitY=0.75;exitDx=0;exitDy=0;entryX=1;entryY=0.75;entryDx=0;entryDy=0;dashed=1;" parent="1" source="eYe3twEenQZhyWE6A-Cx-6" target="eYe3twEenQZhyWE6A-Cx-2" edge="1">
          <mxGeometry relative="1" as="geometry" />
        </mxCell>
        <mxCell id="YsMnqwY8aBCkSEAm9X7z-4" value="Entity" style="edgeLabel;html=1;align=center;verticalAlign=middle;resizable=0;points=[];" parent="YsMnqwY8aBCkSEAm9X7z-3" vertex="1" connectable="0">
          <mxGeometry y="1" relative="1" as="geometry">
            <mxPoint as="offset" />
          </mxGeometry>
        </mxCell>
        <mxCell id="YsMnqwY8aBCkSEAm9X7z-14" value="" style="edgeStyle=orthogonalEdgeStyle;rounded=0;orthogonalLoop=1;jettySize=auto;html=1;dashed=1;" parent="1" source="eYe3twEenQZhyWE6A-Cx-6" target="YsMnqwY8aBCkSEAm9X7z-13" edge="1">
          <mxGeometry relative="1" as="geometry" />
        </mxCell>
        <mxCell id="YsMnqwY8aBCkSEAm9X7z-15" value="load()" style="edgeLabel;html=1;align=center;verticalAlign=middle;resizable=0;points=[];" parent="YsMnqwY8aBCkSEAm9X7z-14" vertex="1" connectable="0">
          <mxGeometry x="-0.0875" relative="1" as="geometry">
            <mxPoint as="offset" />
          </mxGeometry>
        </mxCell>
        <mxCell id="eYe3twEenQZhyWE6A-Cx-6" value="EntityPersister" style="shape=process;whiteSpace=wrap;html=1;backgroundOutline=1;" parent="1" vertex="1">
          <mxGeometry x="640" y="680" width="120" height="60" as="geometry" />
        </mxCell>
        <mxCell id="YsMnqwY8aBCkSEAm9X7z-2" style="edgeStyle=orthogonalEdgeStyle;rounded=0;orthogonalLoop=1;jettySize=auto;html=1;entryX=0.5;entryY=1;entryDx=0;entryDy=0;" parent="1" source="YsMnqwY8aBCkSEAm9X7z-1" target="eYe3twEenQZhyWE6A-Cx-6" edge="1">
          <mxGeometry relative="1" as="geometry" />
        </mxCell>
        <mxCell id="YsMnqwY8aBCkSEAm9X7z-1" value="SingleTableEntityPersiter" style="shape=process;whiteSpace=wrap;html=1;backgroundOutline=1;" parent="1" vertex="1">
          <mxGeometry x="640" y="820" width="120" height="60" as="geometry" />
        </mxCell>
        <mxCell id="YsMnqwY8aBCkSEAm9X7z-6" style="edgeStyle=orthogonalEdgeStyle;rounded=0;orthogonalLoop=1;jettySize=auto;html=1;entryX=0.5;entryY=0;entryDx=0;entryDy=0;dashed=1;" parent="1" source="YsMnqwY8aBCkSEAm9X7z-5" target="eYe3twEenQZhyWE6A-Cx-1" edge="1">
          <mxGeometry relative="1" as="geometry" />
        </mxCell>
        <mxCell id="YsMnqwY8aBCkSEAm9X7z-7" value="applyEventToListner" style="edgeLabel;html=1;align=center;verticalAlign=middle;resizable=0;points=[];" parent="YsMnqwY8aBCkSEAm9X7z-6" vertex="1" connectable="0">
          <mxGeometry x="0.2133" y="-1" relative="1" as="geometry">
            <mxPoint as="offset" />
          </mxGeometry>
        </mxCell>
        <mxCell id="YsMnqwY8aBCkSEAm9X7z-5" value="Session" style="shape=process;whiteSpace=wrap;html=1;backgroundOutline=1;" parent="1" vertex="1">
          <mxGeometry x="110" y="390" width="120" height="60" as="geometry" />
        </mxCell>
        <mxCell id="YsMnqwY8aBCkSEAm9X7z-9" style="edgeStyle=orthogonalEdgeStyle;rounded=0;orthogonalLoop=1;jettySize=auto;html=1;entryX=0.5;entryY=1;entryDx=0;entryDy=0;" parent="1" source="YsMnqwY8aBCkSEAm9X7z-8" target="YsMnqwY8aBCkSEAm9X7z-5" edge="1">
          <mxGeometry relative="1" as="geometry" />
        </mxCell>
        <mxCell id="YsMnqwY8aBCkSEAm9X7z-8" value="SessionImpl" style="shape=process;whiteSpace=wrap;html=1;backgroundOutline=1;" parent="1" vertex="1">
          <mxGeometry x="110" y="540" width="120" height="60" as="geometry" />
        </mxCell>
        <mxCell id="YsMnqwY8aBCkSEAm9X7z-11" style="edgeStyle=orthogonalEdgeStyle;rounded=0;orthogonalLoop=1;jettySize=auto;html=1;dashed=1;" parent="1" source="YsMnqwY8aBCkSEAm9X7z-10" target="YsMnqwY8aBCkSEAm9X7z-5" edge="1">
          <mxGeometry relative="1" as="geometry" />
        </mxCell>
        <mxCell id="YsMnqwY8aBCkSEAm9X7z-12" value="fireLoad()" style="edgeLabel;html=1;align=center;verticalAlign=middle;resizable=0;points=[];" parent="YsMnqwY8aBCkSEAm9X7z-11" vertex="1" connectable="0">
          <mxGeometry x="0.144" y="-1" relative="1" as="geometry">
            <mxPoint as="offset" />
          </mxGeometry>
        </mxCell>
        <mxCell id="YsMnqwY8aBCkSEAm9X7z-10" value="Actor" style="shape=umlActor;verticalLabelPosition=bottom;verticalAlign=top;html=1;outlineConnect=0;" parent="1" vertex="1">
          <mxGeometry y="250" width="30" height="60" as="geometry" />
        </mxCell>
        <mxCell id="YsMnqwY8aBCkSEAm9X7z-17" value="" style="edgeStyle=orthogonalEdgeStyle;rounded=0;orthogonalLoop=1;jettySize=auto;html=1;" parent="1" source="YsMnqwY8aBCkSEAm9X7z-13" target="YsMnqwY8aBCkSEAm9X7z-16" edge="1">
          <mxGeometry relative="1" as="geometry" />
        </mxCell>
        <mxCell id="YsMnqwY8aBCkSEAm9X7z-23" value="" style="edgeStyle=orthogonalEdgeStyle;rounded=0;orthogonalLoop=1;jettySize=auto;html=1;dashed=1;" parent="1" source="YsMnqwY8aBCkSEAm9X7z-13" target="YsMnqwY8aBCkSEAm9X7z-22" edge="1">
          <mxGeometry relative="1" as="geometry" />
        </mxCell>
        <mxCell id="YsMnqwY8aBCkSEAm9X7z-24" value="new()" style="edgeLabel;html=1;align=center;verticalAlign=middle;resizable=0;points=[];" parent="YsMnqwY8aBCkSEAm9X7z-23" vertex="1" connectable="0">
          <mxGeometry x="-0.0308" y="1" relative="1" as="geometry">
            <mxPoint as="offset" />
          </mxGeometry>
        </mxCell>
        <mxCell id="YsMnqwY8aBCkSEAm9X7z-27" style="edgeStyle=orthogonalEdgeStyle;rounded=0;orthogonalLoop=1;jettySize=auto;html=1;exitX=0.75;exitY=1;exitDx=0;exitDy=0;dashed=1;dashPattern=1 2;" parent="1" source="YsMnqwY8aBCkSEAm9X7z-13" target="YsMnqwY8aBCkSEAm9X7z-25" edge="1">
          <mxGeometry relative="1" as="geometry" />
        </mxCell>
        <mxCell id="YsMnqwY8aBCkSEAm9X7z-28" value="&lt;font color=&quot;#990099&quot;&gt;staticLoadQuery&lt;/font&gt;" style="edgeLabel;html=1;align=center;verticalAlign=middle;resizable=0;points=[];" parent="YsMnqwY8aBCkSEAm9X7z-27" vertex="1" connectable="0">
          <mxGeometry x="-0.1515" y="-2" relative="1" as="geometry">
            <mxPoint as="offset" />
          </mxGeometry>
        </mxCell>
        <mxCell id="YsMnqwY8aBCkSEAm9X7z-29" style="edgeStyle=orthogonalEdgeStyle;rounded=0;orthogonalLoop=1;jettySize=auto;html=1;exitX=0.25;exitY=1;exitDx=0;exitDy=0;dashed=1;fontColor=#660066;entryX=0.25;entryY=0;entryDx=0;entryDy=0;" parent="1" source="YsMnqwY8aBCkSEAm9X7z-13" target="YsMnqwY8aBCkSEAm9X7z-30" edge="1">
          <mxGeometry relative="1" as="geometry">
            <mxPoint x="950" y="840" as="targetPoint" />
          </mxGeometry>
        </mxCell>
        <mxCell id="YsMnqwY8aBCkSEAm9X7z-31" value="extract(statement)" style="edgeLabel;html=1;align=center;verticalAlign=middle;resizable=0;points=[];fontColor=#000000;" parent="YsMnqwY8aBCkSEAm9X7z-29" vertex="1" connectable="0">
          <mxGeometry y="2" relative="1" as="geometry">
            <mxPoint as="offset" />
          </mxGeometry>
        </mxCell>
        <mxCell id="YsMnqwY8aBCkSEAm9X7z-50" style="edgeStyle=orthogonalEdgeStyle;rounded=0;orthogonalLoop=1;jettySize=auto;html=1;exitX=0.75;exitY=1;exitDx=0;exitDy=0;fontColor=#000000;dashed=1;entryX=0.25;entryY=0;entryDx=0;entryDy=0;" parent="1" source="YsMnqwY8aBCkSEAm9X7z-13" target="YsMnqwY8aBCkSEAm9X7z-46" edge="1">
          <mxGeometry relative="1" as="geometry">
            <Array as="points">
              <mxPoint x="1010" y="790" />
              <mxPoint x="1510" y="790" />
            </Array>
          </mxGeometry>
        </mxCell>
        <mxCell id="YsMnqwY8aBCkSEAm9X7z-51" value="extractResults()" style="edgeLabel;html=1;align=center;verticalAlign=middle;resizable=0;points=[];fontColor=#000000;" parent="YsMnqwY8aBCkSEAm9X7z-50" vertex="1" connectable="0">
          <mxGeometry x="-0.1704" y="-3" relative="1" as="geometry">
            <mxPoint as="offset" />
          </mxGeometry>
        </mxCell>
        <mxCell id="YsMnqwY8aBCkSEAm9X7z-13" value="EntityLoader" style="shape=process;whiteSpace=wrap;html=1;backgroundOutline=1;" parent="1" vertex="1">
          <mxGeometry x="920" y="680" width="120" height="60" as="geometry" />
        </mxCell>
        <mxCell id="YsMnqwY8aBCkSEAm9X7z-19" value="" style="edgeStyle=orthogonalEdgeStyle;rounded=0;orthogonalLoop=1;jettySize=auto;html=1;" parent="1" source="YsMnqwY8aBCkSEAm9X7z-16" target="YsMnqwY8aBCkSEAm9X7z-18" edge="1">
          <mxGeometry relative="1" as="geometry" />
        </mxCell>
        <mxCell id="YsMnqwY8aBCkSEAm9X7z-21" style="edgeStyle=orthogonalEdgeStyle;rounded=0;orthogonalLoop=1;jettySize=auto;html=1;entryX=0.5;entryY=1;entryDx=0;entryDy=0;" parent="1" source="YsMnqwY8aBCkSEAm9X7z-16" target="YsMnqwY8aBCkSEAm9X7z-20" edge="1">
          <mxGeometry relative="1" as="geometry" />
        </mxCell>
        <mxCell id="YsMnqwY8aBCkSEAm9X7z-16" value="AbstractLoadPlanBasedEntityLoader" style="shape=process;whiteSpace=wrap;html=1;backgroundOutline=1;" parent="1" vertex="1">
          <mxGeometry x="920" y="540" width="120" height="60" as="geometry" />
        </mxCell>
        <mxCell id="YsMnqwY8aBCkSEAm9X7z-18" value="AbstractLoadPlanBasedLoader" style="shape=process;whiteSpace=wrap;html=1;backgroundOutline=1;" parent="1" vertex="1">
          <mxGeometry x="827" y="390" width="120" height="60" as="geometry" />
        </mxCell>
        <mxCell id="YsMnqwY8aBCkSEAm9X7z-20" value="UniqueEntityLoader" style="shape=process;whiteSpace=wrap;html=1;backgroundOutline=1;" parent="1" vertex="1">
          <mxGeometry x="1020" y="390" width="120" height="60" as="geometry" />
        </mxCell>
        <mxCell id="YsMnqwY8aBCkSEAm9X7z-22" value="QueryParameters" style="shape=process;whiteSpace=wrap;html=1;backgroundOutline=1;" parent="1" vertex="1">
          <mxGeometry x="1170" y="680" width="120" height="60" as="geometry" />
        </mxCell>
        <mxCell id="YsMnqwY8aBCkSEAm9X7z-45" style="edgeStyle=orthogonalEdgeStyle;rounded=0;orthogonalLoop=1;jettySize=auto;html=1;dashed=1;fontColor=#000000;entryX=0;entryY=0.5;entryDx=0;entryDy=0;" parent="1" source="YsMnqwY8aBCkSEAm9X7z-25" target="YsMnqwY8aBCkSEAm9X7z-46" edge="1">
          <mxGeometry relative="1" as="geometry">
            <mxPoint x="1440" y="1015" as="targetPoint" />
          </mxGeometry>
        </mxCell>
        <mxCell id="YsMnqwY8aBCkSEAm9X7z-52" value="resultProcessor" style="edgeLabel;html=1;align=center;verticalAlign=middle;resizable=0;points=[];fontColor=#000000;" parent="YsMnqwY8aBCkSEAm9X7z-45" vertex="1" connectable="0">
          <mxGeometry x="-0.0727" y="-1" relative="1" as="geometry">
            <mxPoint as="offset" />
          </mxGeometry>
        </mxCell>
        <mxCell id="YsMnqwY8aBCkSEAm9X7z-25" value="EntityLoadeQueryDetails&lt;br&gt;&lt;br&gt;&lt;div style=&quot;text-align: left;&quot;&gt;&lt;span style=&quot;background-color: initial;&quot;&gt;&lt;font color=&quot;#660066&quot;&gt;keyColumnNames&lt;/font&gt;&lt;/span&gt;&lt;/div&gt;&lt;div style=&quot;text-align: left;&quot;&gt;&lt;span style=&quot;background-color: initial;&quot;&gt;&lt;font color=&quot;#660066&quot;&gt;sqlStatement&lt;/font&gt;&lt;/span&gt;&lt;/div&gt;&lt;div style=&quot;text-align: left;&quot;&gt;&lt;span style=&quot;background-color: initial;&quot;&gt;&lt;font color=&quot;#660066&quot;&gt;queryProcessors&lt;/font&gt;&lt;/span&gt;&lt;/div&gt;&lt;div style=&quot;text-align: left;&quot;&gt;&lt;span style=&quot;background-color: initial;&quot;&gt;&lt;font color=&quot;#660066&quot;&gt;loadPlan&lt;/font&gt;&lt;/span&gt;&lt;/div&gt;&lt;div style=&quot;text-align: left;&quot;&gt;&lt;span style=&quot;background-color: initial;&quot;&gt;&lt;font color=&quot;#660066&quot;&gt;resultProcessor&lt;/font&gt;&lt;/span&gt;&lt;/div&gt;&lt;div style=&quot;text-align: left;&quot;&gt;&lt;span style=&quot;background-color: initial;&quot;&gt;&lt;font color=&quot;#660066&quot;&gt;entityReferenceAlias&lt;/font&gt;&lt;/span&gt;&lt;/div&gt;" style="shape=process;whiteSpace=wrap;html=1;backgroundOutline=1;" parent="1" vertex="1">
          <mxGeometry x="1030" y="950" width="240" height="130" as="geometry" />
        </mxCell>
        <mxCell id="YsMnqwY8aBCkSEAm9X7z-33" value="" style="edgeStyle=orthogonalEdgeStyle;rounded=0;orthogonalLoop=1;jettySize=auto;html=1;dashed=1;fontColor=#000000;exitX=0;exitY=0.25;exitDx=0;exitDy=0;entryX=1;entryY=0.25;entryDx=0;entryDy=0;" parent="1" source="YsMnqwY8aBCkSEAm9X7z-30" target="YsMnqwY8aBCkSEAm9X7z-32" edge="1">
          <mxGeometry relative="1" as="geometry">
            <mxPoint x="690" y="970" as="targetPoint" />
          </mxGeometry>
        </mxCell>
        <mxCell id="YsMnqwY8aBCkSEAm9X7z-37" value="executeQuery()" style="edgeLabel;html=1;align=center;verticalAlign=middle;resizable=0;points=[];fontColor=#000000;" parent="YsMnqwY8aBCkSEAm9X7z-33" vertex="1" connectable="0">
          <mxGeometry x="-0.225" y="-1" relative="1" as="geometry">
            <mxPoint x="-12" as="offset" />
          </mxGeometry>
        </mxCell>
        <mxCell id="YsMnqwY8aBCkSEAm9X7z-41" style="edgeStyle=orthogonalEdgeStyle;rounded=0;orthogonalLoop=1;jettySize=auto;html=1;entryX=0.5;entryY=1;entryDx=0;entryDy=0;dashed=1;fontColor=#000000;" parent="1" source="YsMnqwY8aBCkSEAm9X7z-30" target="YsMnqwY8aBCkSEAm9X7z-13" edge="1">
          <mxGeometry relative="1" as="geometry">
            <Array as="points">
              <mxPoint x="900" y="880" />
              <mxPoint x="980" y="880" />
            </Array>
          </mxGeometry>
        </mxCell>
        <mxCell id="YsMnqwY8aBCkSEAm9X7z-42" value="ResultSet" style="edgeLabel;html=1;align=center;verticalAlign=middle;resizable=0;points=[];fontColor=#000000;" parent="YsMnqwY8aBCkSEAm9X7z-41" vertex="1" connectable="0">
          <mxGeometry x="-0.2345" y="-4" relative="1" as="geometry">
            <mxPoint as="offset" />
          </mxGeometry>
        </mxCell>
        <mxCell id="YsMnqwY8aBCkSEAm9X7z-30" value="&lt;font color=&quot;#000000&quot;&gt;ResultSetReturn&lt;/font&gt;" style="shape=process;whiteSpace=wrap;html=1;backgroundOutline=1;fontColor=#660066;" parent="1" vertex="1">
          <mxGeometry x="840" y="950" width="120" height="60" as="geometry" />
        </mxCell>
        <mxCell id="YsMnqwY8aBCkSEAm9X7z-39" style="edgeStyle=orthogonalEdgeStyle;rounded=0;orthogonalLoop=1;jettySize=auto;html=1;exitX=1;exitY=0.75;exitDx=0;exitDy=0;entryX=0;entryY=0.75;entryDx=0;entryDy=0;fontColor=#000000;dashed=1;" parent="1" source="YsMnqwY8aBCkSEAm9X7z-32" target="YsMnqwY8aBCkSEAm9X7z-30" edge="1">
          <mxGeometry relative="1" as="geometry" />
        </mxCell>
        <mxCell id="YsMnqwY8aBCkSEAm9X7z-40" value="ResultSet" style="edgeLabel;html=1;align=center;verticalAlign=middle;resizable=0;points=[];fontColor=#000000;" parent="YsMnqwY8aBCkSEAm9X7z-39" vertex="1" connectable="0">
          <mxGeometry x="-0.09" y="2" relative="1" as="geometry">
            <mxPoint as="offset" />
          </mxGeometry>
        </mxCell>
        <mxCell id="YsMnqwY8aBCkSEAm9X7z-32" value="&lt;font color=&quot;#000000&quot;&gt;Statement&lt;/font&gt;" style="shape=process;whiteSpace=wrap;html=1;backgroundOutline=1;fontColor=#660066;" parent="1" vertex="1">
          <mxGeometry x="520" y="950" width="120" height="60" as="geometry" />
        </mxCell>
        <mxCell id="YsMnqwY8aBCkSEAm9X7z-38" style="edgeStyle=orthogonalEdgeStyle;rounded=0;orthogonalLoop=1;jettySize=auto;html=1;fontColor=#000000;" parent="1" source="YsMnqwY8aBCkSEAm9X7z-34" target="YsMnqwY8aBCkSEAm9X7z-32" edge="1">
          <mxGeometry relative="1" as="geometry" />
        </mxCell>
        <mxCell id="YsMnqwY8aBCkSEAm9X7z-34" value="PreparedStatement" style="shape=process;whiteSpace=wrap;html=1;backgroundOutline=1;fontColor=#000000;" parent="1" vertex="1">
          <mxGeometry x="520" y="1070" width="120" height="60" as="geometry" />
        </mxCell>
        <mxCell id="YsMnqwY8aBCkSEAm9X7z-53" value="results:List" style="edgeStyle=orthogonalEdgeStyle;rounded=0;orthogonalLoop=1;jettySize=auto;html=1;exitX=0.5;exitY=0;exitDx=0;exitDy=0;entryX=1;entryY=1;entryDx=0;entryDy=0;dashed=1;fontColor=#000000;" parent="1" source="YsMnqwY8aBCkSEAm9X7z-46" target="YsMnqwY8aBCkSEAm9X7z-13" edge="1">
          <mxGeometry relative="1" as="geometry">
            <Array as="points">
              <mxPoint x="1540" y="760" />
              <mxPoint x="1040" y="760" />
            </Array>
          </mxGeometry>
        </mxCell>
        <mxCell id="YsMnqwY8aBCkSEAm9X7z-54" style="edgeStyle=orthogonalEdgeStyle;rounded=0;orthogonalLoop=1;jettySize=auto;html=1;dashed=1;fontColor=#000000;entryX=0;entryY=0.5;entryDx=0;entryDy=0;" parent="1" source="YsMnqwY8aBCkSEAm9X7z-47" target="YsMnqwY8aBCkSEAm9X7z-55" edge="1">
          <mxGeometry relative="1" as="geometry">
            <mxPoint x="1690" y="1017" as="targetPoint" />
          </mxGeometry>
        </mxCell>
        <mxCell id="Q3ESyhPRZcyhHD8H27Hn-6" value="readRow" style="edgeLabel;html=1;align=center;verticalAlign=middle;resizable=0;points=[];fontColor=#000000;" vertex="1" connectable="0" parent="YsMnqwY8aBCkSEAm9X7z-54">
          <mxGeometry y="1" relative="1" as="geometry">
            <mxPoint as="offset" />
          </mxGeometry>
        </mxCell>
        <mxCell id="YsMnqwY8aBCkSEAm9X7z-46" value="ResultSetProcessor" style="shape=process;whiteSpace=wrap;html=1;backgroundOutline=1;fontColor=#000000;" parent="1" vertex="1">
          <mxGeometry x="1480" y="987" width="120" height="60" as="geometry" />
        </mxCell>
        <mxCell id="YsMnqwY8aBCkSEAm9X7z-48" style="edgeStyle=orthogonalEdgeStyle;rounded=0;orthogonalLoop=1;jettySize=auto;html=1;exitX=0.5;exitY=0;exitDx=0;exitDy=0;entryX=0.5;entryY=1;entryDx=0;entryDy=0;fontColor=#000000;" parent="1" source="YsMnqwY8aBCkSEAm9X7z-47" target="YsMnqwY8aBCkSEAm9X7z-46" edge="1">
          <mxGeometry relative="1" as="geometry" />
        </mxCell>
        <mxCell id="YsMnqwY8aBCkSEAm9X7z-47" value="ResultSetProcessorImpl" style="shape=process;whiteSpace=wrap;html=1;backgroundOutline=1;fontColor=#000000;" parent="1" vertex="1">
          <mxGeometry x="1480" y="1135" width="120" height="60" as="geometry" />
        </mxCell>
        <mxCell id="YsMnqwY8aBCkSEAm9X7z-55" value="RowReader" style="shape=process;whiteSpace=wrap;html=1;backgroundOutline=1;fontColor=#000000;" parent="1" vertex="1">
          <mxGeometry x="1700" y="1135" width="120" height="60" as="geometry" />
        </mxCell>
        <mxCell id="YsMnqwY8aBCkSEAm9X7z-59" style="edgeStyle=orthogonalEdgeStyle;rounded=0;orthogonalLoop=1;jettySize=auto;html=1;exitX=0.5;exitY=0;exitDx=0;exitDy=0;fontColor=#000000;entryX=0.5;entryY=1;entryDx=0;entryDy=0;" parent="1" source="YsMnqwY8aBCkSEAm9X7z-56" target="Q3ESyhPRZcyhHD8H27Hn-1" edge="1">
          <mxGeometry relative="1" as="geometry" />
        </mxCell>
        <mxCell id="YsMnqwY8aBCkSEAm9X7z-56" value="CollectionLoaderRowReader" style="shape=process;whiteSpace=wrap;html=1;backgroundOutline=1;fontColor=#000000;" parent="1" vertex="1">
          <mxGeometry x="1780" y="1520" width="120" height="60" as="geometry" />
        </mxCell>
        <mxCell id="YsMnqwY8aBCkSEAm9X7z-58" style="edgeStyle=orthogonalEdgeStyle;rounded=0;orthogonalLoop=1;jettySize=auto;html=1;exitX=0.5;exitY=0;exitDx=0;exitDy=0;fontColor=#000000;entryX=0.5;entryY=1;entryDx=0;entryDy=0;" parent="1" source="YsMnqwY8aBCkSEAm9X7z-57" target="Q3ESyhPRZcyhHD8H27Hn-1" edge="1">
          <mxGeometry relative="1" as="geometry" />
        </mxCell>
        <mxCell id="YsMnqwY8aBCkSEAm9X7z-57" value="EntityLoaderRowReader" style="shape=process;whiteSpace=wrap;html=1;backgroundOutline=1;fontColor=#000000;" parent="1" vertex="1">
          <mxGeometry x="1620" y="1520" width="120" height="60" as="geometry" />
        </mxCell>
        <mxCell id="Q3ESyhPRZcyhHD8H27Hn-2" style="edgeStyle=orthogonalEdgeStyle;rounded=0;orthogonalLoop=1;jettySize=auto;html=1;entryX=0.5;entryY=1;entryDx=0;entryDy=0;" edge="1" parent="1" source="Q3ESyhPRZcyhHD8H27Hn-1" target="YsMnqwY8aBCkSEAm9X7z-55">
          <mxGeometry relative="1" as="geometry" />
        </mxCell>
        <mxCell id="Q3ESyhPRZcyhHD8H27Hn-4" style="edgeStyle=orthogonalEdgeStyle;rounded=0;orthogonalLoop=1;jettySize=auto;html=1;dashed=1;" edge="1" parent="1" source="Q3ESyhPRZcyhHD8H27Hn-1" target="Q3ESyhPRZcyhHD8H27Hn-3">
          <mxGeometry relative="1" as="geometry" />
        </mxCell>
        <mxCell id="Q3ESyhPRZcyhHD8H27Hn-5" value="resloveEntityKey()" style="edgeLabel;html=1;align=center;verticalAlign=middle;resizable=0;points=[];fontColor=#000000;" vertex="1" connectable="0" parent="Q3ESyhPRZcyhHD8H27Hn-4">
          <mxGeometry x="-0.0917" y="-1" relative="1" as="geometry">
            <mxPoint y="-3" as="offset" />
          </mxGeometry>
        </mxCell>
        <mxCell id="Q3ESyhPRZcyhHD8H27Hn-1" value="AbstractRowReader" style="shape=process;whiteSpace=wrap;html=1;backgroundOutline=1;" vertex="1" parent="1">
          <mxGeometry x="1700" y="1290" width="120" height="60" as="geometry" />
        </mxCell>
        <mxCell id="Q3ESyhPRZcyhHD8H27Hn-3" value="EntityReferenceInitialier" style="shape=process;whiteSpace=wrap;html=1;backgroundOutline=1;" vertex="1" parent="1">
          <mxGeometry x="2060" y="1290" width="120" height="60" as="geometry" />
        </mxCell>
        <mxCell id="Q3ESyhPRZcyhHD8H27Hn-7" value="LoadingCollectionEntry" style="shape=process;whiteSpace=wrap;html=1;backgroundOutline=1;fontColor=#000000;" vertex="1" parent="1">
          <mxGeometry x="1320" y="1450" width="120" height="60" as="geometry" />
        </mxCell>
        <mxCell id="Q3ESyhPRZcyhHD8H27Hn-8" value="PersistentSet" style="shape=process;whiteSpace=wrap;html=1;backgroundOutline=1;fontColor=#000000;" vertex="1" parent="1">
          <mxGeometry x="1140" y="1410" width="120" height="60" as="geometry" />
        </mxCell>
      </root>
    </mxGraphModel>
  </diagram>
  <diagram id="dfjI36Nrg-r1J_cZFsXG" name="페이지-3">
    <mxGraphModel dx="3781" dy="1359" grid="1" gridSize="10" guides="1" tooltips="1" connect="1" arrows="1" fold="1" page="1" pageScale="1" pageWidth="827" pageHeight="1169" math="0" shadow="0">
      <root>
        <mxCell id="0" />
        <mxCell id="1" parent="0" />
        <mxCell id="3EsLUF3SePwedlHZrIV7-2" style="edgeStyle=orthogonalEdgeStyle;rounded=0;orthogonalLoop=1;jettySize=auto;html=1;" parent="1" source="3EsLUF3SePwedlHZrIV7-1" target="3EsLUF3SePwedlHZrIV7-3" edge="1">
          <mxGeometry relative="1" as="geometry">
            <mxPoint x="340" y="450" as="targetPoint" />
          </mxGeometry>
        </mxCell>
        <mxCell id="3EsLUF3SePwedlHZrIV7-1" value="seller #1&lt;br&gt;(userId)" style="ellipse;whiteSpace=wrap;html=1;aspect=fixed;" parent="1" vertex="1">
          <mxGeometry x="70" y="410" width="80" height="80" as="geometry" />
        </mxCell>
        <mxCell id="3EsLUF3SePwedlHZrIV7-3" value="buyer #2&lt;br&gt;(userId)" style="ellipse;whiteSpace=wrap;html=1;aspect=fixed;" parent="1" vertex="1">
          <mxGeometry x="300" y="410" width="80" height="80" as="geometry" />
        </mxCell>
        <mxCell id="3EsLUF3SePwedlHZrIV7-4" value="source&lt;br&gt;vertex" style="text;html=1;strokeColor=none;fillColor=none;align=center;verticalAlign=middle;whiteSpace=wrap;rounded=0;" parent="1" vertex="1">
          <mxGeometry x="80" y="380" width="60" height="30" as="geometry" />
        </mxCell>
        <mxCell id="3EsLUF3SePwedlHZrIV7-5" value="dst&lt;br&gt;vertex" style="text;html=1;strokeColor=none;fillColor=none;align=center;verticalAlign=middle;whiteSpace=wrap;rounded=0;" parent="1" vertex="1">
          <mxGeometry x="310" y="380" width="60" height="30" as="geometry" />
        </mxCell>
        <mxCell id="3EsLUF3SePwedlHZrIV7-6" value="edge &lt;br&gt;trade#100" style="text;html=1;align=center;verticalAlign=middle;resizable=0;points=[];autosize=1;strokeColor=none;fillColor=none;" parent="1" vertex="1">
          <mxGeometry x="180" y="405" width="80" height="40" as="geometry" />
        </mxCell>
        <mxCell id="3EsLUF3SePwedlHZrIV7-13" style="edgeStyle=orthogonalEdgeStyle;rounded=0;orthogonalLoop=1;jettySize=auto;html=1;" parent="1" source="3EsLUF3SePwedlHZrIV7-7" target="3EsLUF3SePwedlHZrIV7-12" edge="1">
          <mxGeometry relative="1" as="geometry" />
        </mxCell>
        <mxCell id="3EsLUF3SePwedlHZrIV7-14" value="변환" style="edgeLabel;html=1;align=center;verticalAlign=middle;resizable=0;points=[];" parent="3EsLUF3SePwedlHZrIV7-13" vertex="1" connectable="0">
          <mxGeometry x="-0.1" relative="1" as="geometry">
            <mxPoint as="offset" />
          </mxGeometry>
        </mxCell>
        <mxCell id="3EsLUF3SePwedlHZrIV7-7" value="trade_history" style="swimlane;fontStyle=0;childLayout=stackLayout;horizontal=1;startSize=30;horizontalStack=0;resizeParent=1;resizeParentMax=0;resizeLast=0;collapsible=1;marginBottom=0;" parent="1" vertex="1">
          <mxGeometry x="120" y="140" width="200" height="120" as="geometry" />
        </mxCell>
        <mxCell id="3EsLUF3SePwedlHZrIV7-8" value="userId: #1(seller) tradeId:  #100" style="text;strokeColor=none;fillColor=none;align=left;verticalAlign=middle;spacingLeft=4;spacingRight=4;overflow=hidden;points=[[0,0.5],[1,0.5]];portConstraint=eastwest;rotatable=0;" parent="3EsLUF3SePwedlHZrIV7-7" vertex="1">
          <mxGeometry y="30" width="200" height="30" as="geometry" />
        </mxCell>
        <mxCell id="3EsLUF3SePwedlHZrIV7-9" value="userId: #2(buyer) tradeId:  #100" style="text;strokeColor=none;fillColor=none;align=left;verticalAlign=middle;spacingLeft=4;spacingRight=4;overflow=hidden;points=[[0,0.5],[1,0.5]];portConstraint=eastwest;rotatable=0;" parent="3EsLUF3SePwedlHZrIV7-7" vertex="1">
          <mxGeometry y="60" width="200" height="30" as="geometry" />
        </mxCell>
        <mxCell id="3EsLUF3SePwedlHZrIV7-10" value="......." style="text;strokeColor=none;fillColor=none;align=left;verticalAlign=middle;spacingLeft=4;spacingRight=4;overflow=hidden;points=[[0,0.5],[1,0.5]];portConstraint=eastwest;rotatable=0;" parent="3EsLUF3SePwedlHZrIV7-7" vertex="1">
          <mxGeometry y="90" width="200" height="30" as="geometry" />
        </mxCell>
        <mxCell id="3EsLUF3SePwedlHZrIV7-12" value="Graph" style="swimlane;" parent="1" vertex="1">
          <mxGeometry x="20" y="340" width="400" height="200" as="geometry" />
        </mxCell>
        <mxCell id="3EsLUF3SePwedlHZrIV7-16" style="rounded=0;orthogonalLoop=1;jettySize=auto;html=1;dashed=1;edgeStyle=orthogonalEdgeStyle;" parent="1" source="3EsLUF3SePwedlHZrIV7-15" target="3EsLUF3SePwedlHZrIV7-6" edge="1">
          <mxGeometry relative="1" as="geometry" />
        </mxCell>
        <mxCell id="3EsLUF3SePwedlHZrIV7-15" value="&lt;h1&gt;edge #1&lt;/h1&gt;&lt;p&gt;&lt;/p&gt;&lt;ul&gt;&lt;li&gt;orderId(chatId or tradeId)&lt;/li&gt;&lt;li&gt;sellerId&lt;/li&gt;&lt;li&gt;buyerId&lt;/li&gt;&lt;li&gt;tradedAt&lt;/li&gt;&lt;li&gt;price&lt;/li&gt;&lt;li&gt;amount&lt;/li&gt;&lt;li&gt;sellerAccountHash&lt;/li&gt;&lt;li&gt;buyerAccoutHash&lt;/li&gt;&lt;/ul&gt;&lt;p&gt;&lt;/p&gt;&lt;p&gt;&lt;br&gt;&lt;/p&gt;" style="text;html=1;strokeColor=none;fillColor=none;spacing=5;spacingTop=-20;whiteSpace=wrap;overflow=hidden;rounded=0;" parent="1" vertex="1">
          <mxGeometry x="125" y="570" width="190" height="180" as="geometry" />
        </mxCell>
        <mxCell id="3EsLUF3SePwedlHZrIV7-20" style="edgeStyle=orthogonalEdgeStyle;rounded=0;orthogonalLoop=1;jettySize=auto;html=1;" parent="1" source="3EsLUF3SePwedlHZrIV7-21" target="3EsLUF3SePwedlHZrIV7-22" edge="1">
          <mxGeometry relative="1" as="geometry">
            <mxPoint x="780" y="210" as="targetPoint" />
          </mxGeometry>
        </mxCell>
        <mxCell id="3EsLUF3SePwedlHZrIV7-21" value="#1" style="ellipse;whiteSpace=wrap;html=1;aspect=fixed;" parent="1" vertex="1">
          <mxGeometry x="510" y="170" width="80" height="80" as="geometry" />
        </mxCell>
        <mxCell id="3EsLUF3SePwedlHZrIV7-42" style="edgeStyle=orthogonalEdgeStyle;rounded=0;orthogonalLoop=1;jettySize=auto;html=1;" parent="1" source="3EsLUF3SePwedlHZrIV7-22" target="3EsLUF3SePwedlHZrIV7-40" edge="1">
          <mxGeometry relative="1" as="geometry" />
        </mxCell>
        <mxCell id="3EsLUF3SePwedlHZrIV7-50" value="#101" style="edgeLabel;html=1;align=center;verticalAlign=middle;resizable=0;points=[];" parent="3EsLUF3SePwedlHZrIV7-42" vertex="1" connectable="0">
          <mxGeometry x="0.0476" y="2" relative="1" as="geometry">
            <mxPoint as="offset" />
          </mxGeometry>
        </mxCell>
        <mxCell id="3EsLUF3SePwedlHZrIV7-22" value="#2" style="ellipse;whiteSpace=wrap;html=1;aspect=fixed;" parent="1" vertex="1">
          <mxGeometry x="740" y="170" width="80" height="80" as="geometry" />
        </mxCell>
        <mxCell id="3EsLUF3SePwedlHZrIV7-25" value="&amp;nbsp;#100" style="text;html=1;align=center;verticalAlign=middle;resizable=0;points=[];autosize=1;strokeColor=none;fillColor=none;" parent="1" vertex="1">
          <mxGeometry x="635" y="185" width="50" height="30" as="geometry" />
        </mxCell>
        <mxCell id="3EsLUF3SePwedlHZrIV7-32" value="Graph" style="swimlane;" parent="1" vertex="1">
          <mxGeometry x="460" y="90" width="680" height="540" as="geometry" />
        </mxCell>
        <mxCell id="3EsLUF3SePwedlHZrIV7-39" value="#4" style="ellipse;whiteSpace=wrap;html=1;aspect=fixed;" parent="3EsLUF3SePwedlHZrIV7-32" vertex="1">
          <mxGeometry x="50" y="265" width="80" height="80" as="geometry" />
        </mxCell>
        <mxCell id="3EsLUF3SePwedlHZrIV7-44" style="edgeStyle=orthogonalEdgeStyle;rounded=0;orthogonalLoop=1;jettySize=auto;html=1;entryX=1;entryY=0.5;entryDx=0;entryDy=0;" parent="3EsLUF3SePwedlHZrIV7-32" source="3EsLUF3SePwedlHZrIV7-40" target="3EsLUF3SePwedlHZrIV7-39" edge="1">
          <mxGeometry relative="1" as="geometry" />
        </mxCell>
        <mxCell id="3EsLUF3SePwedlHZrIV7-60" style="edgeStyle=orthogonalEdgeStyle;rounded=0;orthogonalLoop=1;jettySize=auto;html=1;entryX=0.5;entryY=1;entryDx=0;entryDy=0;" parent="3EsLUF3SePwedlHZrIV7-32" source="3EsLUF3SePwedlHZrIV7-40" target="3EsLUF3SePwedlHZrIV7-58" edge="1">
          <mxGeometry relative="1" as="geometry" />
        </mxCell>
        <mxCell id="3EsLUF3SePwedlHZrIV7-40" value="#3" style="ellipse;whiteSpace=wrap;html=1;aspect=fixed;" parent="3EsLUF3SePwedlHZrIV7-32" vertex="1">
          <mxGeometry x="280" y="265" width="80" height="80" as="geometry" />
        </mxCell>
        <mxCell id="3EsLUF3SePwedlHZrIV7-41" value="#102" style="text;html=1;align=center;verticalAlign=middle;resizable=0;points=[];autosize=1;strokeColor=none;fillColor=none;" parent="3EsLUF3SePwedlHZrIV7-32" vertex="1">
          <mxGeometry x="175" y="280" width="50" height="30" as="geometry" />
        </mxCell>
        <mxCell id="3EsLUF3SePwedlHZrIV7-48" value="#5" style="ellipse;whiteSpace=wrap;html=1;aspect=fixed;" parent="3EsLUF3SePwedlHZrIV7-32" vertex="1">
          <mxGeometry x="50" y="420" width="80" height="80" as="geometry" />
        </mxCell>
        <mxCell id="3EsLUF3SePwedlHZrIV7-47" value="#104" style="edgeStyle=orthogonalEdgeStyle;rounded=0;orthogonalLoop=1;jettySize=auto;html=1;" parent="3EsLUF3SePwedlHZrIV7-32" source="3EsLUF3SePwedlHZrIV7-39" target="3EsLUF3SePwedlHZrIV7-48" edge="1">
          <mxGeometry relative="1" as="geometry">
            <mxPoint x="90" y="430" as="targetPoint" />
          </mxGeometry>
        </mxCell>
        <mxCell id="3EsLUF3SePwedlHZrIV7-53" value="#6" style="ellipse;whiteSpace=wrap;html=1;aspect=fixed;" parent="3EsLUF3SePwedlHZrIV7-32" vertex="1">
          <mxGeometry x="310" y="400" width="80" height="80" as="geometry" />
        </mxCell>
        <mxCell id="3EsLUF3SePwedlHZrIV7-56" value="#106" style="edgeStyle=orthogonalEdgeStyle;rounded=0;orthogonalLoop=1;jettySize=auto;html=1;exitX=0;exitY=1;exitDx=0;exitDy=0;entryX=1;entryY=1;entryDx=0;entryDy=0;" parent="3EsLUF3SePwedlHZrIV7-32" source="3EsLUF3SePwedlHZrIV7-54" target="3EsLUF3SePwedlHZrIV7-53" edge="1">
          <mxGeometry relative="1" as="geometry" />
        </mxCell>
        <mxCell id="3EsLUF3SePwedlHZrIV7-54" value="#7" style="ellipse;whiteSpace=wrap;html=1;aspect=fixed;" parent="3EsLUF3SePwedlHZrIV7-32" vertex="1">
          <mxGeometry x="500" y="400" width="80" height="80" as="geometry" />
        </mxCell>
        <mxCell id="3EsLUF3SePwedlHZrIV7-52" style="edgeStyle=orthogonalEdgeStyle;rounded=0;orthogonalLoop=1;jettySize=auto;html=1;exitX=1;exitY=0;exitDx=0;exitDy=0;entryX=0;entryY=0;entryDx=0;entryDy=0;" parent="3EsLUF3SePwedlHZrIV7-32" source="3EsLUF3SePwedlHZrIV7-53" target="3EsLUF3SePwedlHZrIV7-54" edge="1">
          <mxGeometry relative="1" as="geometry">
            <mxPoint x="580" y="440" as="targetPoint" />
          </mxGeometry>
        </mxCell>
        <mxCell id="3EsLUF3SePwedlHZrIV7-55" value="&amp;nbsp;#105" style="text;html=1;align=center;verticalAlign=middle;resizable=0;points=[];autosize=1;strokeColor=none;fillColor=none;" parent="3EsLUF3SePwedlHZrIV7-32" vertex="1">
          <mxGeometry x="435" y="388" width="50" height="30" as="geometry" />
        </mxCell>
        <mxCell id="3EsLUF3SePwedlHZrIV7-59" style="edgeStyle=orthogonalEdgeStyle;rounded=0;orthogonalLoop=1;jettySize=auto;html=1;entryX=0;entryY=0.5;entryDx=0;entryDy=0;" parent="3EsLUF3SePwedlHZrIV7-32" source="3EsLUF3SePwedlHZrIV7-57" target="3EsLUF3SePwedlHZrIV7-58" edge="1">
          <mxGeometry relative="1" as="geometry" />
        </mxCell>
        <mxCell id="3EsLUF3SePwedlHZrIV7-57" value="#8" style="ellipse;whiteSpace=wrap;html=1;aspect=fixed;" parent="3EsLUF3SePwedlHZrIV7-32" vertex="1">
          <mxGeometry x="390" y="160" width="80" height="80" as="geometry" />
        </mxCell>
        <mxCell id="3EsLUF3SePwedlHZrIV7-62" style="edgeStyle=orthogonalEdgeStyle;rounded=0;orthogonalLoop=1;jettySize=auto;html=1;exitX=1;exitY=1;exitDx=0;exitDy=0;entryX=1;entryY=0.5;entryDx=0;entryDy=0;" parent="3EsLUF3SePwedlHZrIV7-32" source="3EsLUF3SePwedlHZrIV7-58" target="3EsLUF3SePwedlHZrIV7-54" edge="1">
          <mxGeometry relative="1" as="geometry" />
        </mxCell>
        <mxCell id="3EsLUF3SePwedlHZrIV7-58" value="#9" style="ellipse;whiteSpace=wrap;html=1;aspect=fixed;" parent="3EsLUF3SePwedlHZrIV7-32" vertex="1">
          <mxGeometry x="531" y="160" width="80" height="80" as="geometry" />
        </mxCell>
        <mxCell id="3EsLUF3SePwedlHZrIV7-45" style="edgeStyle=orthogonalEdgeStyle;rounded=0;orthogonalLoop=1;jettySize=auto;html=1;entryX=0.5;entryY=1;entryDx=0;entryDy=0;" parent="1" source="3EsLUF3SePwedlHZrIV7-39" target="3EsLUF3SePwedlHZrIV7-21" edge="1">
          <mxGeometry relative="1" as="geometry" />
        </mxCell>
        <mxCell id="3EsLUF3SePwedlHZrIV7-49" value="#103" style="edgeLabel;html=1;align=center;verticalAlign=middle;resizable=0;points=[];rotation=0;" parent="3EsLUF3SePwedlHZrIV7-45" vertex="1" connectable="0">
          <mxGeometry x="-0.1048" y="1" relative="1" as="geometry">
            <mxPoint x="1" y="-3" as="offset" />
          </mxGeometry>
        </mxCell>
      </root>
    </mxGraphModel>
  </diagram>
  <diagram id="o6QJVfBHXaEUF26QqUlw" name="페이지-4">
    <mxGraphModel dx="3204" dy="2521" grid="1" gridSize="10" guides="1" tooltips="1" connect="1" arrows="1" fold="1" page="1" pageScale="1" pageWidth="827" pageHeight="1169" math="0" shadow="0">
      <root>
        <mxCell id="0" />
        <mxCell id="1" parent="0" />
        <mxCell id="qU3aVpkGS5DaaZZCQ86z-1" value="Session(EntityManager)" style="swimlane;startSize=23;" vertex="1" parent="1">
          <mxGeometry x="110" y="300" width="1070" height="1380" as="geometry" />
        </mxCell>
        <mxCell id="qU3aVpkGS5DaaZZCQ86z-2" value="PersistentContext" style="swimlane;" vertex="1" parent="qU3aVpkGS5DaaZZCQ86z-1">
          <mxGeometry x="80" y="80" width="630" height="270" as="geometry" />
        </mxCell>
        <mxCell id="qU3aVpkGS5DaaZZCQ86z-82" value="EntityEntryContext" style="swimlane;fontSize=11;startSize=23;" vertex="1" parent="qU3aVpkGS5DaaZZCQ86z-2">
          <mxGeometry x="64" y="73" width="356" height="157" as="geometry" />
        </mxCell>
        <mxCell id="qU3aVpkGS5DaaZZCQ86z-88" value="(tail)ManageEntity" style="verticalLabelPosition=bottom;verticalAlign=top;html=1;shape=mxgraph.flowchart.on-page_reference;fontSize=11;" vertex="1" parent="qU3aVpkGS5DaaZZCQ86z-82">
          <mxGeometry x="236" y="48.5" width="60" height="60" as="geometry" />
        </mxCell>
        <mxCell id="qU3aVpkGS5DaaZZCQ86z-86" value="ManageEntity" style="verticalLabelPosition=bottom;verticalAlign=top;html=1;shape=mxgraph.flowchart.on-page_reference;fontSize=11;" vertex="1" parent="qU3aVpkGS5DaaZZCQ86z-82">
          <mxGeometry x="130" y="48.5" width="60" height="60" as="geometry" />
        </mxCell>
        <mxCell id="qU3aVpkGS5DaaZZCQ86z-87" value="" style="edgeStyle=orthogonalEdgeStyle;rounded=0;orthogonalLoop=1;jettySize=auto;html=1;dashed=1;fontSize=11;" edge="1" parent="qU3aVpkGS5DaaZZCQ86z-82" source="qU3aVpkGS5DaaZZCQ86z-80" target="qU3aVpkGS5DaaZZCQ86z-86">
          <mxGeometry relative="1" as="geometry" />
        </mxCell>
        <mxCell id="qU3aVpkGS5DaaZZCQ86z-80" value="(head)ManageEntity" style="verticalLabelPosition=bottom;verticalAlign=top;html=1;shape=mxgraph.flowchart.on-page_reference;fontSize=11;" vertex="1" parent="qU3aVpkGS5DaaZZCQ86z-82">
          <mxGeometry x="16" y="48.5" width="60" height="60" as="geometry" />
        </mxCell>
        <mxCell id="qU3aVpkGS5DaaZZCQ86z-89" value="" style="edgeStyle=orthogonalEdgeStyle;rounded=0;orthogonalLoop=1;jettySize=auto;html=1;dashed=1;fontSize=11;" edge="1" parent="qU3aVpkGS5DaaZZCQ86z-82" source="qU3aVpkGS5DaaZZCQ86z-86" target="qU3aVpkGS5DaaZZCQ86z-88">
          <mxGeometry relative="1" as="geometry" />
        </mxCell>
        <mxCell id="qU3aVpkGS5DaaZZCQ86z-90" style="edgeStyle=orthogonalEdgeStyle;rounded=0;orthogonalLoop=1;jettySize=auto;html=1;exitX=0;exitY=0.5;exitDx=0;exitDy=0;entryX=0;entryY=0.5;entryDx=0;entryDy=0;dashed=1;fontSize=11;" edge="1" parent="qU3aVpkGS5DaaZZCQ86z-2" source="qU3aVpkGS5DaaZZCQ86z-2" target="qU3aVpkGS5DaaZZCQ86z-82">
          <mxGeometry relative="1" as="geometry" />
        </mxCell>
        <mxCell id="qU3aVpkGS5DaaZZCQ86z-3" value="EventListenerGroups" style="swimlane;childLayout=stackLayout;resizeParent=1;resizeParentMax=0;startSize=20;" vertex="1" parent="qU3aVpkGS5DaaZZCQ86z-1">
          <mxGeometry x="550" y="610" width="385" height="280" as="geometry" />
        </mxCell>
        <mxCell id="qU3aVpkGS5DaaZZCQ86z-4" value="PERSIST" style="swimlane;startSize=20;" vertex="1" parent="qU3aVpkGS5DaaZZCQ86z-3">
          <mxGeometry y="20" width="145" height="260" as="geometry" />
        </mxCell>
        <mxCell id="qU3aVpkGS5DaaZZCQ86z-17" value="DELETE" style="swimlane;startSize=20;" vertex="1" parent="qU3aVpkGS5DaaZZCQ86z-4">
          <mxGeometry x="2" y="140" width="138" height="120" as="geometry" />
        </mxCell>
        <mxCell id="qU3aVpkGS5DaaZZCQ86z-20" value="DefaultPersist-&lt;br&gt;EventListener" style="text;html=1;align=center;verticalAlign=middle;resizable=0;points=[];autosize=1;strokeColor=none;fillColor=none;" vertex="1" parent="qU3aVpkGS5DaaZZCQ86z-4">
          <mxGeometry x="24" y="25" width="100" height="40" as="geometry" />
        </mxCell>
        <mxCell id="qU3aVpkGS5DaaZZCQ86z-5" value="MERGE" style="swimlane;startSize=20;" vertex="1" parent="qU3aVpkGS5DaaZZCQ86z-3">
          <mxGeometry x="145" y="20" width="120" height="260" as="geometry" />
        </mxCell>
        <mxCell id="qU3aVpkGS5DaaZZCQ86z-18" value="FLUSH" style="swimlane;startSize=20;" vertex="1" parent="qU3aVpkGS5DaaZZCQ86z-5">
          <mxGeometry y="140" width="120" height="120" as="geometry" />
        </mxCell>
        <mxCell id="qU3aVpkGS5DaaZZCQ86z-6" value="LOAD" style="swimlane;startSize=20;" vertex="1" parent="qU3aVpkGS5DaaZZCQ86z-3">
          <mxGeometry x="265" y="20" width="120" height="260" as="geometry" />
        </mxCell>
        <mxCell id="qU3aVpkGS5DaaZZCQ86z-19" value="CLEAR" style="swimlane;startSize=20;" vertex="1" parent="qU3aVpkGS5DaaZZCQ86z-6">
          <mxGeometry y="140" width="120" height="120" as="geometry" />
        </mxCell>
        <mxCell id="qU3aVpkGS5DaaZZCQ86z-78" style="edgeStyle=orthogonalEdgeStyle;rounded=0;orthogonalLoop=1;jettySize=auto;html=1;entryX=0;entryY=0.5;entryDx=0;entryDy=0;entryPerimeter=0;dashed=1;fontSize=18;exitX=0.25;exitY=0;exitDx=0;exitDy=0;" edge="1" parent="qU3aVpkGS5DaaZZCQ86z-1" source="qU3aVpkGS5DaaZZCQ86z-62" target="qU3aVpkGS5DaaZZCQ86z-77">
          <mxGeometry relative="1" as="geometry" />
        </mxCell>
        <mxCell id="qU3aVpkGS5DaaZZCQ86z-79" value="&lt;font style=&quot;font-size: 11px;&quot;&gt;(3-1-3) addInsertAction&lt;/font&gt;" style="edgeLabel;html=1;align=center;verticalAlign=middle;resizable=0;points=[];fontSize=18;" vertex="1" connectable="0" parent="qU3aVpkGS5DaaZZCQ86z-78">
          <mxGeometry x="0.1488" y="-5" relative="1" as="geometry">
            <mxPoint as="offset" />
          </mxGeometry>
        </mxCell>
        <mxCell id="qU3aVpkGS5DaaZZCQ86z-62" value="DefaultPersistEventListener" style="swimlane;" vertex="1" parent="qU3aVpkGS5DaaZZCQ86z-1">
          <mxGeometry x="60" y="710" width="310" height="240" as="geometry" />
        </mxCell>
        <mxCell id="qU3aVpkGS5DaaZZCQ86z-63" value="CallbackRegistry" style="swimlane;fontStyle=0;childLayout=stackLayout;horizontal=1;startSize=30;horizontalStack=0;resizeParent=1;resizeParentMax=0;resizeLast=0;collapsible=1;marginBottom=0;" vertex="1" parent="qU3aVpkGS5DaaZZCQ86z-62">
          <mxGeometry x="30" y="60" width="140" height="120" as="geometry" />
        </mxCell>
        <mxCell id="qU3aVpkGS5DaaZZCQ86z-64" value="preCreate&#xa;postCreate    " style="text;strokeColor=none;fillColor=none;align=left;verticalAlign=middle;spacingLeft=4;spacingRight=4;overflow=hidden;points=[[0,0.5],[1,0.5]];portConstraint=eastwest;rotatable=0;" vertex="1" parent="qU3aVpkGS5DaaZZCQ86z-63">
          <mxGeometry y="30" width="140" height="30" as="geometry" />
        </mxCell>
        <mxCell id="qU3aVpkGS5DaaZZCQ86z-65" value="preUpdate&#xa;postUpdate" style="text;strokeColor=none;fillColor=none;align=left;verticalAlign=middle;spacingLeft=4;spacingRight=4;overflow=hidden;points=[[0,0.5],[1,0.5]];portConstraint=eastwest;rotatable=0;" vertex="1" parent="qU3aVpkGS5DaaZZCQ86z-63">
          <mxGeometry y="60" width="140" height="30" as="geometry" />
        </mxCell>
        <mxCell id="qU3aVpkGS5DaaZZCQ86z-66" value="preRemove&#xa;postRemove&#xa;postLoad" style="text;strokeColor=none;fillColor=none;align=left;verticalAlign=middle;spacingLeft=4;spacingRight=4;overflow=hidden;points=[[0,0.5],[1,0.5]];portConstraint=eastwest;rotatable=0;" vertex="1" parent="qU3aVpkGS5DaaZZCQ86z-63">
          <mxGeometry y="90" width="140" height="30" as="geometry" />
        </mxCell>
        <mxCell id="qU3aVpkGS5DaaZZCQ86z-71" style="edgeStyle=orthogonalEdgeStyle;rounded=0;orthogonalLoop=1;jettySize=auto;html=1;entryX=0;entryY=0.5;entryDx=0;entryDy=0;dashed=1;exitX=0;exitY=0;exitDx=0;exitDy=0;" edge="1" parent="qU3aVpkGS5DaaZZCQ86z-1" source="qU3aVpkGS5DaaZZCQ86z-62" target="qU3aVpkGS5DaaZZCQ86z-2">
          <mxGeometry relative="1" as="geometry">
            <Array as="points">
              <mxPoint x="40" y="750" />
              <mxPoint x="40" y="215" />
            </Array>
          </mxGeometry>
        </mxCell>
        <mxCell id="qU3aVpkGS5DaaZZCQ86z-72" value="(3-1-2) addEntry" style="edgeLabel;html=1;align=center;verticalAlign=middle;resizable=0;points=[];" vertex="1" connectable="0" parent="qU3aVpkGS5DaaZZCQ86z-71">
          <mxGeometry x="0.6147" y="-1" relative="1" as="geometry">
            <mxPoint as="offset" />
          </mxGeometry>
        </mxCell>
        <mxCell id="qU3aVpkGS5DaaZZCQ86z-67" style="edgeStyle=orthogonalEdgeStyle;rounded=0;orthogonalLoop=1;jettySize=auto;html=1;exitX=0;exitY=0.5;exitDx=0;exitDy=0;dashed=1;" edge="1" parent="qU3aVpkGS5DaaZZCQ86z-1" source="qU3aVpkGS5DaaZZCQ86z-17" target="qU3aVpkGS5DaaZZCQ86z-62">
          <mxGeometry relative="1" as="geometry">
            <mxPoint x="122" y="465" as="sourcePoint" />
            <mxPoint x="102" y="740" as="targetPoint" />
          </mxGeometry>
        </mxCell>
        <mxCell id="qU3aVpkGS5DaaZZCQ86z-68" value="(3-1) onPersist,&lt;br&gt;&amp;nbsp;saveWithRequestId" style="edgeLabel;html=1;align=center;verticalAlign=middle;resizable=0;points=[];" vertex="1" connectable="0" parent="qU3aVpkGS5DaaZZCQ86z-67">
          <mxGeometry x="0.0264" y="1" relative="1" as="geometry">
            <mxPoint x="-7" as="offset" />
          </mxGeometry>
        </mxCell>
        <mxCell id="qU3aVpkGS5DaaZZCQ86z-74" style="edgeStyle=orthogonalEdgeStyle;rounded=0;orthogonalLoop=1;jettySize=auto;html=1;exitX=0;exitY=0.5;exitDx=0;exitDy=0;entryX=0.25;entryY=0;entryDx=0;entryDy=0;dashed=1;" edge="1" parent="qU3aVpkGS5DaaZZCQ86z-1" source="qU3aVpkGS5DaaZZCQ86z-1" target="qU3aVpkGS5DaaZZCQ86z-3">
          <mxGeometry relative="1" as="geometry">
            <Array as="points">
              <mxPoint x="646" y="555" />
            </Array>
          </mxGeometry>
        </mxCell>
        <mxCell id="qU3aVpkGS5DaaZZCQ86z-77" value="&lt;b&gt;&lt;font style=&quot;font-size: 18px;&quot;&gt;ActionQueue&lt;/font&gt;&lt;/b&gt;" style="strokeWidth=2;html=1;shape=mxgraph.flowchart.direct_data;whiteSpace=wrap;" vertex="1" parent="qU3aVpkGS5DaaZZCQ86z-1">
          <mxGeometry x="350" y="370" width="470" height="110" as="geometry" />
        </mxCell>
        <mxCell id="qU3aVpkGS5DaaZZCQ86z-102" style="edgeStyle=orthogonalEdgeStyle;rounded=0;orthogonalLoop=1;jettySize=auto;html=1;exitX=1;exitY=0.25;exitDx=0;exitDy=0;entryX=0.08;entryY=1;entryDx=0;entryDy=0;entryPerimeter=0;dashed=1;fontSize=11;" edge="1" parent="qU3aVpkGS5DaaZZCQ86z-1" source="qU3aVpkGS5DaaZZCQ86z-91" target="qU3aVpkGS5DaaZZCQ86z-77">
          <mxGeometry relative="1" as="geometry" />
        </mxCell>
        <mxCell id="qU3aVpkGS5DaaZZCQ86z-91" value="DefaultFlushEventListener" style="swimlane;" vertex="1" parent="qU3aVpkGS5DaaZZCQ86z-1">
          <mxGeometry x="60" y="1000" width="310" height="240" as="geometry" />
        </mxCell>
        <mxCell id="qU3aVpkGS5DaaZZCQ86z-96" style="edgeStyle=orthogonalEdgeStyle;rounded=0;orthogonalLoop=1;jettySize=auto;html=1;exitX=0.5;exitY=1;exitDx=0;exitDy=0;entryX=1;entryY=0.5;entryDx=0;entryDy=0;dashed=1;fontSize=11;" edge="1" parent="qU3aVpkGS5DaaZZCQ86z-1" source="qU3aVpkGS5DaaZZCQ86z-18" target="qU3aVpkGS5DaaZZCQ86z-91">
          <mxGeometry relative="1" as="geometry" />
        </mxCell>
        <mxCell id="qU3aVpkGS5DaaZZCQ86z-101" value="(5-1) onFlush" style="edgeLabel;html=1;align=center;verticalAlign=middle;resizable=0;points=[];fontSize=11;" vertex="1" connectable="0" parent="qU3aVpkGS5DaaZZCQ86z-96">
          <mxGeometry x="0.7511" y="1" relative="1" as="geometry">
            <mxPoint as="offset" />
          </mxGeometry>
        </mxCell>
        <mxCell id="qU3aVpkGS5DaaZZCQ86z-103" value="EntityInsertAction" style="verticalLabelPosition=bottom;verticalAlign=top;html=1;shape=mxgraph.flowchart.on-page_reference;fontSize=11;" vertex="1" parent="qU3aVpkGS5DaaZZCQ86z-1">
          <mxGeometry x="657" y="390" width="60" height="60" as="geometry" />
        </mxCell>
        <mxCell id="qU3aVpkGS5DaaZZCQ86z-106" value="tail" style="text;html=1;align=center;verticalAlign=middle;resizable=0;points=[];autosize=1;strokeColor=none;fillColor=none;fontSize=11;" vertex="1" parent="qU3aVpkGS5DaaZZCQ86z-1">
          <mxGeometry x="360" y="410" width="40" height="30" as="geometry" />
        </mxCell>
        <mxCell id="qU3aVpkGS5DaaZZCQ86z-105" value="head" style="text;html=1;align=center;verticalAlign=middle;resizable=0;points=[];autosize=1;strokeColor=none;fillColor=none;fontSize=11;" vertex="1" parent="qU3aVpkGS5DaaZZCQ86z-1">
          <mxGeometry x="662" y="405" width="50" height="30" as="geometry" />
        </mxCell>
        <mxCell id="qU3aVpkGS5DaaZZCQ86z-7" value="Database" style="shape=datastore;whiteSpace=wrap;html=1;" vertex="1" parent="1">
          <mxGeometry x="1380" y="380" width="170" height="130" as="geometry" />
        </mxCell>
        <mxCell id="qU3aVpkGS5DaaZZCQ86z-8" value="" style="shape=doubleArrow;whiteSpace=wrap;html=1;" vertex="1" parent="1">
          <mxGeometry x="1190" y="420" width="170" height="60" as="geometry" />
        </mxCell>
        <mxCell id="qU3aVpkGS5DaaZZCQ86z-9" style="edgeStyle=orthogonalEdgeStyle;rounded=0;orthogonalLoop=1;jettySize=auto;html=1;entryX=0.5;entryY=1;entryDx=0;entryDy=0;dashed=1;" edge="1" parent="1" source="qU3aVpkGS5DaaZZCQ86z-13" target="qU3aVpkGS5DaaZZCQ86z-16">
          <mxGeometry relative="1" as="geometry" />
        </mxCell>
        <mxCell id="qU3aVpkGS5DaaZZCQ86z-10" value="(1) createEntityManager&amp;nbsp;" style="edgeLabel;html=1;align=center;verticalAlign=middle;resizable=0;points=[];" vertex="1" connectable="0" parent="qU3aVpkGS5DaaZZCQ86z-9">
          <mxGeometry x="-0.152" y="2" relative="1" as="geometry">
            <mxPoint as="offset" />
          </mxGeometry>
        </mxCell>
        <mxCell id="qU3aVpkGS5DaaZZCQ86z-11" style="edgeStyle=orthogonalEdgeStyle;rounded=0;orthogonalLoop=1;jettySize=auto;html=1;exitX=1;exitY=1;exitDx=0;exitDy=0;exitPerimeter=0;entryX=0;entryY=0.5;entryDx=0;entryDy=0;dashed=1;" edge="1" parent="1" source="qU3aVpkGS5DaaZZCQ86z-13" target="qU3aVpkGS5DaaZZCQ86z-1">
          <mxGeometry relative="1" as="geometry" />
        </mxCell>
        <mxCell id="qU3aVpkGS5DaaZZCQ86z-12" value="(2) persist(entity)" style="edgeLabel;html=1;align=center;verticalAlign=middle;resizable=0;points=[];" vertex="1" connectable="0" parent="qU3aVpkGS5DaaZZCQ86z-11">
          <mxGeometry x="-0.0508" y="-1" relative="1" as="geometry">
            <mxPoint as="offset" />
          </mxGeometry>
        </mxCell>
        <mxCell id="qU3aVpkGS5DaaZZCQ86z-75" value="(3), (5) fireEventOnEachListener" style="edgeLabel;html=1;align=center;verticalAlign=middle;resizable=0;points=[];" vertex="1" connectable="0" parent="qU3aVpkGS5DaaZZCQ86z-11">
          <mxGeometry x="0.7522" y="2" relative="1" as="geometry">
            <mxPoint x="406" y="-138" as="offset" />
          </mxGeometry>
        </mxCell>
        <mxCell id="qU3aVpkGS5DaaZZCQ86z-98" style="edgeStyle=orthogonalEdgeStyle;rounded=0;orthogonalLoop=1;jettySize=auto;html=1;exitX=1;exitY=1;exitDx=0;exitDy=0;exitPerimeter=0;dashed=1;fontSize=11;entryX=0;entryY=0.25;entryDx=0;entryDy=0;" edge="1" parent="1" source="qU3aVpkGS5DaaZZCQ86z-13" target="qU3aVpkGS5DaaZZCQ86z-1">
          <mxGeometry relative="1" as="geometry">
            <mxPoint x="30" y="960" as="targetPoint" />
          </mxGeometry>
        </mxCell>
        <mxCell id="qU3aVpkGS5DaaZZCQ86z-13" value="Actor" style="shape=umlActor;verticalLabelPosition=bottom;verticalAlign=top;html=1;outlineConnect=0;" vertex="1" parent="1">
          <mxGeometry x="-170" y="330" width="70" height="125" as="geometry" />
        </mxCell>
        <mxCell id="qU3aVpkGS5DaaZZCQ86z-14" style="edgeStyle=orthogonalEdgeStyle;rounded=0;orthogonalLoop=1;jettySize=auto;html=1;exitX=0.5;exitY=1;exitDx=0;exitDy=0;dashed=1;" edge="1" parent="1" source="qU3aVpkGS5DaaZZCQ86z-16" target="qU3aVpkGS5DaaZZCQ86z-1">
          <mxGeometry relative="1" as="geometry" />
        </mxCell>
        <mxCell id="qU3aVpkGS5DaaZZCQ86z-15" value="(1) buildEntityManager" style="edgeLabel;html=1;align=center;verticalAlign=middle;resizable=0;points=[];" vertex="1" connectable="0" parent="qU3aVpkGS5DaaZZCQ86z-14">
          <mxGeometry x="-0.0889" relative="1" as="geometry">
            <mxPoint as="offset" />
          </mxGeometry>
        </mxCell>
        <mxCell id="qU3aVpkGS5DaaZZCQ86z-16" value="SessionFactory" style="swimlane;" vertex="1" parent="1">
          <mxGeometry x="-50" y="20" width="200" height="200" as="geometry" />
        </mxCell>
        <mxCell id="qU3aVpkGS5DaaZZCQ86z-28" value="AbstractReassociate-EventListener" style="shape=process;whiteSpace=wrap;html=1;backgroundOutline=1;" vertex="1" parent="1">
          <mxGeometry x="-404" y="700" width="120" height="60" as="geometry" />
        </mxCell>
        <mxCell id="qU3aVpkGS5DaaZZCQ86z-30" style="edgeStyle=orthogonalEdgeStyle;rounded=0;orthogonalLoop=1;jettySize=auto;html=1;" edge="1" parent="1" source="qU3aVpkGS5DaaZZCQ86z-29" target="qU3aVpkGS5DaaZZCQ86z-28">
          <mxGeometry relative="1" as="geometry" />
        </mxCell>
        <mxCell id="qU3aVpkGS5DaaZZCQ86z-29" value="AbstractSave-EventListener" style="shape=process;whiteSpace=wrap;html=1;backgroundOutline=1;" vertex="1" parent="1">
          <mxGeometry x="-404" y="820" width="120" height="60" as="geometry" />
        </mxCell>
        <mxCell id="qU3aVpkGS5DaaZZCQ86z-35" style="edgeStyle=orthogonalEdgeStyle;rounded=0;orthogonalLoop=1;jettySize=auto;html=1;" edge="1" parent="1" source="qU3aVpkGS5DaaZZCQ86z-31" target="qU3aVpkGS5DaaZZCQ86z-29">
          <mxGeometry relative="1" as="geometry" />
        </mxCell>
        <mxCell id="qU3aVpkGS5DaaZZCQ86z-31" value="DefaultSave-EventListener" style="shape=process;whiteSpace=wrap;html=1;backgroundOutline=1;" vertex="1" parent="1">
          <mxGeometry x="-324" y="960" width="120" height="60" as="geometry" />
        </mxCell>
        <mxCell id="qU3aVpkGS5DaaZZCQ86z-33" style="edgeStyle=orthogonalEdgeStyle;rounded=0;orthogonalLoop=1;jettySize=auto;html=1;entryX=0.5;entryY=1;entryDx=0;entryDy=0;" edge="1" parent="1" source="qU3aVpkGS5DaaZZCQ86z-32" target="qU3aVpkGS5DaaZZCQ86z-29">
          <mxGeometry relative="1" as="geometry" />
        </mxCell>
        <mxCell id="qU3aVpkGS5DaaZZCQ86z-32" value="DefaultPersist-EventListener" style="shape=process;whiteSpace=wrap;html=1;backgroundOutline=1;" vertex="1" parent="1">
          <mxGeometry x="-474" y="960" width="120" height="60" as="geometry" />
        </mxCell>
        <mxCell id="qU3aVpkGS5DaaZZCQ86z-49" value="" style="edgeStyle=orthogonalEdgeStyle;rounded=0;orthogonalLoop=1;jettySize=auto;html=1;" edge="1" parent="1" source="qU3aVpkGS5DaaZZCQ86z-36" target="qU3aVpkGS5DaaZZCQ86z-48">
          <mxGeometry relative="1" as="geometry" />
        </mxCell>
        <mxCell id="qU3aVpkGS5DaaZZCQ86z-54" style="edgeStyle=orthogonalEdgeStyle;rounded=0;orthogonalLoop=1;jettySize=auto;html=1;" edge="1" parent="1" source="qU3aVpkGS5DaaZZCQ86z-36" target="qU3aVpkGS5DaaZZCQ86z-46">
          <mxGeometry relative="1" as="geometry" />
        </mxCell>
        <mxCell id="qU3aVpkGS5DaaZZCQ86z-55" style="edgeStyle=orthogonalEdgeStyle;rounded=0;orthogonalLoop=1;jettySize=auto;html=1;" edge="1" parent="1" source="qU3aVpkGS5DaaZZCQ86z-36" target="qU3aVpkGS5DaaZZCQ86z-53">
          <mxGeometry relative="1" as="geometry" />
        </mxCell>
        <mxCell id="qU3aVpkGS5DaaZZCQ86z-36" value="SessionImpl" style="shape=process;whiteSpace=wrap;html=1;backgroundOutline=1;" vertex="1" parent="1">
          <mxGeometry x="790" y="160" width="120" height="60" as="geometry" />
        </mxCell>
        <mxCell id="qU3aVpkGS5DaaZZCQ86z-40" value="" style="edgeStyle=orthogonalEdgeStyle;rounded=0;orthogonalLoop=1;jettySize=auto;html=1;" edge="1" parent="1" source="qU3aVpkGS5DaaZZCQ86z-37" target="qU3aVpkGS5DaaZZCQ86z-39">
          <mxGeometry relative="1" as="geometry" />
        </mxCell>
        <mxCell id="qU3aVpkGS5DaaZZCQ86z-37" value="Session" style="shape=process;whiteSpace=wrap;html=1;backgroundOutline=1;" vertex="1" parent="1">
          <mxGeometry x="790" y="-320" width="120" height="60" as="geometry" />
        </mxCell>
        <mxCell id="qU3aVpkGS5DaaZZCQ86z-39" value="EntityManager" style="shape=process;whiteSpace=wrap;html=1;backgroundOutline=1;" vertex="1" parent="1">
          <mxGeometry x="790" y="-440" width="120" height="60" as="geometry" />
        </mxCell>
        <mxCell id="qU3aVpkGS5DaaZZCQ86z-41" value="PersistentContext" style="shape=process;whiteSpace=wrap;html=1;backgroundOutline=1;" vertex="1" parent="1">
          <mxGeometry x="1100" y="-160" width="120" height="60" as="geometry" />
        </mxCell>
        <mxCell id="qU3aVpkGS5DaaZZCQ86z-43" style="edgeStyle=orthogonalEdgeStyle;rounded=0;orthogonalLoop=1;jettySize=auto;html=1;entryX=0.5;entryY=1;entryDx=0;entryDy=0;" edge="1" parent="1" source="qU3aVpkGS5DaaZZCQ86z-42" target="qU3aVpkGS5DaaZZCQ86z-41">
          <mxGeometry relative="1" as="geometry" />
        </mxCell>
        <mxCell id="qU3aVpkGS5DaaZZCQ86z-42" value="Stateful-PersistentContext" style="shape=process;whiteSpace=wrap;html=1;backgroundOutline=1;" vertex="1" parent="1">
          <mxGeometry x="990" y="-10" width="120" height="60" as="geometry" />
        </mxCell>
        <mxCell id="qU3aVpkGS5DaaZZCQ86z-45" style="edgeStyle=orthogonalEdgeStyle;rounded=0;orthogonalLoop=1;jettySize=auto;html=1;entryX=0.5;entryY=1;entryDx=0;entryDy=0;" edge="1" parent="1" source="qU3aVpkGS5DaaZZCQ86z-44" target="qU3aVpkGS5DaaZZCQ86z-41">
          <mxGeometry relative="1" as="geometry" />
        </mxCell>
        <mxCell id="qU3aVpkGS5DaaZZCQ86z-44" value="Stateless-PersistentContext" style="shape=process;whiteSpace=wrap;html=1;backgroundOutline=1;" vertex="1" parent="1">
          <mxGeometry x="1210" y="-10" width="120" height="60" as="geometry" />
        </mxCell>
        <mxCell id="qU3aVpkGS5DaaZZCQ86z-51" style="edgeStyle=orthogonalEdgeStyle;rounded=0;orthogonalLoop=1;jettySize=auto;html=1;exitX=0.5;exitY=0;exitDx=0;exitDy=0;entryX=0.5;entryY=1;entryDx=0;entryDy=0;" edge="1" parent="1" source="qU3aVpkGS5DaaZZCQ86z-46" target="qU3aVpkGS5DaaZZCQ86z-37">
          <mxGeometry relative="1" as="geometry" />
        </mxCell>
        <mxCell id="qU3aVpkGS5DaaZZCQ86z-59" style="edgeStyle=orthogonalEdgeStyle;rounded=0;orthogonalLoop=1;jettySize=auto;html=1;entryX=0.5;entryY=1;entryDx=0;entryDy=0;" edge="1" parent="1" source="qU3aVpkGS5DaaZZCQ86z-46" target="qU3aVpkGS5DaaZZCQ86z-48">
          <mxGeometry relative="1" as="geometry" />
        </mxCell>
        <mxCell id="qU3aVpkGS5DaaZZCQ86z-60" style="edgeStyle=orthogonalEdgeStyle;rounded=0;orthogonalLoop=1;jettySize=auto;html=1;exitX=0.25;exitY=0;exitDx=0;exitDy=0;" edge="1" parent="1" source="qU3aVpkGS5DaaZZCQ86z-46" target="qU3aVpkGS5DaaZZCQ86z-61">
          <mxGeometry relative="1" as="geometry">
            <mxPoint x="679.9565217391305" y="-110" as="targetPoint" />
          </mxGeometry>
        </mxCell>
        <mxCell id="qU3aVpkGS5DaaZZCQ86z-46" value="AbstractSessionImpl" style="shape=process;whiteSpace=wrap;html=1;backgroundOutline=1;" vertex="1" parent="1">
          <mxGeometry x="650" y="30" width="120" height="60" as="geometry" />
        </mxCell>
        <mxCell id="qU3aVpkGS5DaaZZCQ86z-52" style="edgeStyle=orthogonalEdgeStyle;rounded=0;orthogonalLoop=1;jettySize=auto;html=1;" edge="1" parent="1" source="qU3aVpkGS5DaaZZCQ86z-48" target="qU3aVpkGS5DaaZZCQ86z-37">
          <mxGeometry relative="1" as="geometry" />
        </mxCell>
        <mxCell id="qU3aVpkGS5DaaZZCQ86z-48" value="SessionImplementor" style="shape=process;whiteSpace=wrap;html=1;backgroundOutline=1;" vertex="1" parent="1">
          <mxGeometry x="790" y="-60" width="120" height="60" as="geometry" />
        </mxCell>
        <mxCell id="qU3aVpkGS5DaaZZCQ86z-57" style="edgeStyle=orthogonalEdgeStyle;rounded=0;orthogonalLoop=1;jettySize=auto;html=1;entryX=0;entryY=0.25;entryDx=0;entryDy=0;exitX=0.5;exitY=0;exitDx=0;exitDy=0;" edge="1" parent="1" source="qU3aVpkGS5DaaZZCQ86z-53" target="qU3aVpkGS5DaaZZCQ86z-48">
          <mxGeometry relative="1" as="geometry" />
        </mxCell>
        <mxCell id="qU3aVpkGS5DaaZZCQ86z-53" value="EventSource" style="shape=process;whiteSpace=wrap;html=1;backgroundOutline=1;" vertex="1" parent="1">
          <mxGeometry x="500" y="10" width="120" height="60" as="geometry" />
        </mxCell>
        <mxCell id="qU3aVpkGS5DaaZZCQ86z-61" value="JdbcSession-Owner" style="shape=process;whiteSpace=wrap;html=1;backgroundOutline=1;" vertex="1" parent="1">
          <mxGeometry x="619.9965217391305" y="-220" width="120" height="60" as="geometry" />
        </mxCell>
        <mxCell id="qU3aVpkGS5DaaZZCQ86z-97" value="DefaultFlush-&lt;br&gt;EventListener" style="text;html=1;align=center;verticalAlign=middle;resizable=0;points=[];autosize=1;strokeColor=none;fillColor=none;fontSize=11;" vertex="1" parent="1">
          <mxGeometry x="815" y="1090" width="90" height="40" as="geometry" />
        </mxCell>
        <mxCell id="qU3aVpkGS5DaaZZCQ86z-99" value="(4) flush" style="text;html=1;align=center;verticalAlign=middle;resizable=0;points=[];autosize=1;strokeColor=none;fillColor=none;fontSize=11;" vertex="1" parent="1">
          <mxGeometry x="-30" y="620" width="60" height="30" as="geometry" />
        </mxCell>
      </root>
    </mxGraphModel>
  </diagram>
</mxfile>
